<svg width="420" height="500" viewBox="0 0 420 500" fill="none" xmlns="http://www.w3.org/2000/svg">
<path d="M210 421.39C299.949 421.39 372.868 416.322 372.868 410.07C372.868 403.818 299.949 398.75 210 398.75C120.051 398.75 47.1324 403.818 47.1324 410.07C47.1324 416.322 120.051 421.39 210 421.39Z" fill="#F5F5F5"/>
<path d="M200.256 341.53H38.0604C36.789 341.527 35.5703 340.925 34.6713 339.855C33.7722 338.784 33.2662 337.334 33.264 335.82V64.39C33.2772 62.8851 33.7882 61.4471 34.686 60.3876C35.5838 59.3281 36.7962 58.7325 38.0604 58.73H200.256C201.527 58.7326 202.744 59.3354 203.642 60.4059C204.54 61.4765 205.044 62.9273 205.044 64.44V335.82C205.044 337.333 204.54 338.783 203.642 339.854C202.744 340.925 201.527 341.527 200.256 341.53ZM38.0604 58.93C36.8447 58.9326 35.6794 59.5087 34.8198 60.5321C33.9601 61.5555 33.4762 62.9427 33.474 64.39V335.82C33.4762 337.267 33.9601 338.654 34.8198 339.678C35.6794 340.701 36.8447 341.277 38.0604 341.28H200.256C201.471 341.277 202.635 340.701 203.494 339.677C204.352 338.654 204.834 337.266 204.834 335.82V64.39C204.834 62.9436 204.352 61.5564 203.494 60.5327C202.635 59.5091 201.471 58.9326 200.256 58.93H38.0604Z" fill="#E6E6E6"/>
<path d="M381.948 341.53H219.744C218.473 341.527 217.256 340.925 216.358 339.854C215.46 338.783 214.956 337.333 214.956 335.82V64.39C214.967 62.886 215.476 61.448 216.373 60.3882C217.269 59.3285 218.481 58.7326 219.744 58.73H381.948C383.211 58.7326 384.423 59.3285 385.319 60.3882C386.216 61.448 386.725 62.886 386.736 64.39V335.82C386.736 337.333 386.232 338.783 385.334 339.854C384.436 340.925 383.219 341.527 381.948 341.53ZM219.744 58.93C218.529 58.9326 217.365 59.5091 216.506 60.5327C215.648 61.5564 215.166 62.9436 215.166 64.39V335.82C215.166 337.266 215.648 338.654 216.506 339.677C217.365 340.701 218.529 341.277 219.744 341.28H381.948C383.164 341.277 384.331 340.702 385.192 339.678C386.053 338.655 386.538 337.268 386.543 335.82V64.39C386.538 62.9418 386.053 61.5546 385.192 60.5315C384.331 59.5084 383.164 58.9326 381.948 58.93H219.744Z" fill="#E6E6E6"/>
<path d="M79.8 392.21H45.1836V392.46H79.8V392.21Z" fill="#E0E0E0"/>
<path d="M150.36 390.21H115.643V390.46H150.36V390.21Z" fill="#E0E0E0"/>
<path d="M195.535 390.21H187.135V390.46H195.535V390.21Z" fill="#E0E0E0"/>
<path d="M111.577 398.75H72.7272V399H111.577V398.75Z" fill="#E0E0E0"/>
<path d="M245.952 392.08H227.808V392.33H245.952V392.08Z" fill="#E0E0E0"/>
<path d="M276.889 392.08H253.428V392.33H276.889V392.08Z" fill="#E0E0E0"/>
<path d="M390.037 396.31H337.588V396.56H390.037V396.31Z" fill="#E0E0E0"/>
<path d="M346.45 114.23H306.457V147.5H346.45V114.23Z" fill="#E6E6E6"/>
<path d="M324.492 114.23H306.457V147.5H324.492V114.23Z" fill="#F0F0F0"/>
<path opacity="0.4" d="M315.462 118.74C316.64 118.74 317.791 119.156 318.771 119.935C319.75 120.714 320.513 121.821 320.964 123.117C321.415 124.412 321.533 125.838 321.303 127.213C321.073 128.589 320.506 129.852 319.673 130.843C318.84 131.835 317.779 132.51 316.624 132.784C315.469 133.057 314.271 132.917 313.183 132.38C312.095 131.844 311.164 130.935 310.51 129.769C309.856 128.603 309.506 127.232 309.506 125.83C309.506 123.95 310.134 122.146 311.251 120.817C312.368 119.487 313.882 118.74 315.462 118.74Z" fill="#E0E0E0"/>
<path d="M318.36 139.66C318.36 140.344 318.189 141.013 317.87 141.582C317.551 142.151 317.097 142.595 316.566 142.857C316.035 143.119 315.45 143.187 314.887 143.054C314.323 142.92 313.805 142.59 313.398 142.107C312.992 141.623 312.715 141.006 312.603 140.335C312.491 139.664 312.548 138.968 312.768 138.336C312.988 137.704 313.361 137.163 313.839 136.783C314.317 136.403 314.879 136.2 315.454 136.2C315.836 136.199 316.214 136.287 316.567 136.461C316.92 136.634 317.241 136.889 317.511 137.21C317.781 137.532 317.995 137.914 318.141 138.334C318.287 138.755 318.361 139.205 318.36 139.66Z" fill="#E0E0E0"/>
<path d="M315.42 128.33C316.357 128.33 317.117 127.426 317.117 126.31C317.117 125.194 316.357 124.29 315.42 124.29C314.483 124.29 313.723 125.194 313.723 126.31C313.723 127.426 314.483 128.33 315.42 128.33Z" fill="#FAFAFA"/>
<path d="M261.072 102.31H243.776V147.51H261.072V102.31Z" fill="#F0F0F0"/>
<path d="M283.542 102.31H260.593V147.51H283.542V102.31Z" fill="#E6E6E6"/>
<path d="M252.361 116.66C252.837 116.658 253.303 116.824 253.699 117.138C254.095 117.451 254.405 117.898 254.587 118.421C254.77 118.944 254.819 119.52 254.726 120.075C254.634 120.631 254.405 121.142 254.068 121.542C253.732 121.943 253.303 122.215 252.836 122.326C252.369 122.436 251.886 122.378 251.446 122.16C251.007 121.943 250.632 121.575 250.369 121.103C250.105 120.631 249.965 120.077 249.967 119.51C249.969 118.755 250.222 118.032 250.671 117.498C251.119 116.964 251.727 116.663 252.361 116.66Z" fill="white"/>
<path d="M252.361 112.21C252.599 112.21 252.831 112.294 253.029 112.451C253.226 112.608 253.38 112.831 253.471 113.093C253.562 113.354 253.586 113.642 253.539 113.919C253.493 114.196 253.379 114.451 253.211 114.651C253.043 114.851 252.829 114.987 252.596 115.043C252.363 115.098 252.121 115.069 251.901 114.961C251.682 114.853 251.494 114.67 251.362 114.434C251.23 114.199 251.16 113.923 251.16 113.64C251.16 113.452 251.191 113.266 251.251 113.093C251.312 112.919 251.4 112.762 251.512 112.629C251.623 112.496 251.756 112.391 251.901 112.319C252.047 112.247 252.203 112.21 252.361 112.21Z" fill="white"/>
<path d="M252.361 107.89C252.599 107.89 252.831 107.974 253.029 108.131C253.226 108.288 253.38 108.511 253.471 108.773C253.562 109.034 253.586 109.322 253.539 109.599C253.493 109.876 253.379 110.131 253.211 110.331C253.043 110.531 252.829 110.667 252.596 110.723C252.363 110.778 252.121 110.749 251.901 110.641C251.682 110.533 251.494 110.35 251.362 110.114C251.23 109.879 251.16 109.603 251.16 109.32C251.16 109.132 251.191 108.946 251.251 108.773C251.312 108.599 251.4 108.442 251.512 108.309C251.623 108.176 251.756 108.071 251.901 107.999C252.047 107.927 252.203 107.89 252.361 107.89Z" fill="white"/>
<path d="M283.139 127.66H244.163V128.37H283.139V127.66Z" fill="#E0E0E0"/>
<path d="M283.139 131.67H244.163V132.38H283.139V131.67Z" fill="#E0E0E0"/>
<path d="M283.139 135.68H244.163V136.39H283.139V135.68Z" fill="#E0E0E0"/>
<path d="M283.139 139.69H244.163V140.4H283.139V139.69Z" fill="#E0E0E0"/>
<path d="M283.139 143.7H244.163V144.41H283.139V143.7Z" fill="#E0E0E0"/>
<path d="M252.773 128.88H251.126V130.84H252.773V128.88Z" fill="#E0E0E0"/>
<path d="M252.773 133.1H251.126V135.06H252.773V133.1Z" fill="#E0E0E0"/>
<path d="M252.773 136.9H251.126V138.86H252.773V136.9Z" fill="#E0E0E0"/>
<path d="M252.773 141H251.126V142.96H252.773V141Z" fill="#E0E0E0"/>
<path d="M252.773 144.98H251.126V146.94H252.773V144.98Z" fill="#E0E0E0"/>
<path d="M210.731 192H209.891V153.71C209.893 151.642 210.584 149.66 211.812 148.197C213.04 146.735 214.706 145.913 216.443 145.91H244.163V146.91H216.443C214.929 146.913 213.477 147.63 212.406 148.905C211.335 150.179 210.733 151.907 210.731 153.71V192Z" fill="#E0E0E0"/>
<path d="M209.051 192.07H208.211V153.43C208.213 150.922 209.051 148.517 210.541 146.744C212.03 144.97 214.05 143.973 216.157 143.97H244.163V144.97H216.157C214.273 144.973 212.467 145.865 211.135 147.451C209.802 149.037 209.053 151.187 209.051 153.43V192.07Z" fill="#E0E0E0"/>
<path d="M117.071 96H90.7704V129.33H117.071V96Z" fill="#E6E6E6"/>
<path d="M123.808 96H117.071V129.33H123.808V96Z" fill="#F5F5F5"/>
<path d="M103.631 90.86H83.874V129.33H103.631V90.86Z" fill="#E6E6E6"/>
<path d="M109.334 90.86H103.622V129.33H109.334V90.86Z" fill="#F5F5F5"/>
<path d="M97.8096 96H81.1524V129.33H97.8096V96Z" fill="#EBEBEB"/>
<path d="M101.615 96H97.8096V129.33H101.615V96Z" fill="#F5F5F5"/>
<path d="M84.1764 101.64H62.328V129.33H84.1764V101.64Z" fill="#E6E6E6"/>
<path d="M89.7708 101.64H84.1764V129.33H89.7708V101.64Z" fill="#F5F5F5"/>
<path d="M73.0128 97.37H56.5992V129.33H73.0128V97.37Z" fill="#E6E6E6"/>
<path d="M77.7504 97.37H73.0044V129.33H77.7504V97.37Z" fill="#F5F5F5"/>
<path d="M68.1744 101.64H52.2312V129.33H68.1744V101.64Z" fill="#E6E6E6"/>
<path d="M71.3412 101.64H68.1828V129.33H71.3412V101.64Z" fill="#F0F0F0"/>
<path d="M33.6 138.96L204.96 138.96V129.31L33.6 129.31V138.96Z" fill="#E6E6E6"/>
<path d="M64.3524 139.19H73.8276L66.9228 151.6H64.3524V139.19Z" fill="#E0E0E0"/>
<path d="M64.3524 139.19H62.9832V151.6H64.3524V139.19Z" fill="#E0E0E0"/>
<path d="M170.78 139.19H180.264L173.359 151.6H170.78V139.19Z" fill="#E0E0E0"/>
<path d="M170.789 139.19H169.42V151.6H170.789V139.19Z" fill="#E0E0E0"/>
<path d="M386.593 147.51H215.233V157.16H386.593V147.51Z" fill="#E6E6E6"/>
<path d="M355.849 169.79H353.27L346.366 157.38H355.849V169.79Z" fill="#E0E0E0"/>
<path d="M357.218 157.38H355.849V169.79H357.218V157.38Z" fill="#E0E0E0"/>
<path d="M249.413 169.79H246.834L239.929 157.38H249.413V169.79Z" fill="#E0E0E0"/>
<path d="M250.782 157.38H249.413V169.79H250.782V157.38Z" fill="#E0E0E0"/>
<path d="M165.858 109.89C165.859 108.457 165.681 107.031 165.329 105.66L168.445 102.4L166.488 98.35L162.557 99.94C160.901 97.8336 158.759 96.3582 156.4 95.7L155.56 90.86H151.637L150.797 95.7C148.44 96.3583 146.3 97.8339 144.648 99.94L140.708 98.35L138.751 102.4L141.868 105.66C141.162 108.417 141.162 111.363 141.868 114.12L138.751 117.38L140.708 121.43L144.648 119.84C146.3 121.946 148.44 123.422 150.797 124.08L151.637 128.92H155.56L156.4 124.08C158.759 123.422 160.901 121.946 162.557 119.84L166.488 121.43L168.445 117.38L165.329 114.12C165.681 112.749 165.859 111.323 165.858 109.89ZM153.628 117.75C152.37 117.75 151.14 117.306 150.095 116.474C149.049 115.642 148.234 114.46 147.753 113.077C147.272 111.694 147.146 110.172 147.391 108.703C147.636 107.235 148.242 105.886 149.131 104.827C150.021 103.769 151.154 103.048 152.387 102.755C153.621 102.463 154.899 102.613 156.061 103.186C157.223 103.759 158.216 104.729 158.915 105.974C159.613 107.219 159.986 108.683 159.986 110.18C159.986 112.188 159.316 114.113 158.124 115.533C156.931 116.952 155.314 117.75 153.628 117.75Z" fill="#F0F0F0"/>
<path d="M187.076 112.34C186.668 111.532 186.158 110.804 185.564 110.18L186.404 107.07L184.136 105.6L182.381 108.1C180.847 107.592 179.221 107.64 177.71 108.24L175.854 105.86L173.645 107.46L174.586 110.51C173.453 111.847 172.676 113.551 172.351 115.41L169.688 116.13L169.756 119.2L172.452 119.76C172.854 121.594 173.701 123.247 174.888 124.51L174.048 127.62L176.316 129.09L178.072 126.59C179.609 127.088 181.236 127.04 182.75 126.45L184.607 128.83L186.808 127.23L185.867 124.17C186.999 122.837 187.776 121.136 188.101 119.28L190.764 118.56L190.697 115.48L188.009 114.93C187.811 114.015 187.497 113.141 187.076 112.34ZM182.482 121.76C181.773 122.279 180.952 122.535 180.121 122.498C179.29 122.46 178.487 122.13 177.814 121.548C177.141 120.967 176.628 120.161 176.341 119.233C176.053 118.304 176.003 117.295 176.197 116.332C176.392 115.37 176.822 114.498 177.433 113.826C178.044 113.155 178.809 112.715 179.63 112.562C180.451 112.408 181.293 112.549 182.047 112.965C182.801 113.381 183.435 114.055 183.868 114.9C184.445 116.029 184.624 117.385 184.364 118.671C184.105 119.956 183.428 121.067 182.482 121.76Z" fill="#F0F0F0"/>
<path d="M381.511 273.12H39.1104V278.25H381.511V273.12Z" fill="#407BFF"/>
<path d="M59.5056 276.8V399.14H62.1768L65.5368 276.8H59.5056Z" fill="#407BFF"/>
<path d="M91.0392 280.8V394.14H93.7104L97.0704 280.8H91.0392Z" fill="#407BFF"/>
<path opacity="0.5" d="M91.0392 280.8V394.14H93.7104L97.0704 280.8H91.0392Z" fill="black"/>
<path d="M362.334 276.8V399.14H359.671L356.303 276.8H362.334Z" fill="#407BFF"/>
<path d="M330.8 280.8V394.14H328.129L324.769 280.8H330.8Z" fill="#407BFF"/>
<path opacity="0.5" d="M330.8 280.8V394.14H328.129L324.769 280.8H330.8Z" fill="black"/>
<path d="M368.424 283.74H53.2056L46.2336 278.25H375.396L368.424 283.74Z" fill="#407BFF"/>
<path opacity="0.5" d="M368.424 283.74H53.2056L46.2336 278.25H375.396L368.424 283.74Z" fill="black"/>
<path d="M61.614 257.39V261.39C61.6139 262.053 61.8344 262.69 62.2272 263.16L64.89 266.33C65.1259 266.609 65.4137 266.818 65.73 266.94C66.279 268.347 67.1542 269.537 68.2524 270.372C69.3507 271.206 70.6263 271.65 71.9292 271.65H72.9288C73.8327 271.657 74.7287 271.45 75.5649 271.041C76.4011 270.632 77.1608 270.03 77.7999 269.269C78.4391 268.508 78.945 267.604 79.2883 266.608C79.6317 265.613 79.8056 264.546 79.8 263.47V254.14H65.1168V254.9H63.714C63.1585 254.9 62.6256 255.162 62.2321 255.629C61.8385 256.095 61.6162 256.729 61.614 257.39ZM63.294 257.39C63.294 257.325 63.3049 257.26 63.3261 257.2C63.3473 257.14 63.3784 257.086 63.4175 257.04C63.4566 256.994 63.503 256.958 63.5539 256.934C63.6048 256.91 63.6593 256.899 63.714 256.9H65.1168V263.47C65.1168 263.56 65.1168 263.65 65.1168 263.74L63.4368 261.74C63.3965 261.695 63.3644 261.641 63.3427 261.581C63.321 261.521 63.3101 261.456 63.3108 261.39L63.294 257.39Z" fill="#407BFF"/>
<path opacity="0.5" d="M61.614 257.39V261.39C61.6139 262.053 61.8344 262.69 62.2272 263.16L64.89 266.33C65.1259 266.609 65.4137 266.818 65.73 266.94C66.279 268.347 67.1542 269.537 68.2524 270.372C69.3507 271.206 70.6263 271.65 71.9292 271.65H72.9288C73.8327 271.657 74.7287 271.45 75.5649 271.041C76.4011 270.632 77.1608 270.03 77.7999 269.269C78.4391 268.508 78.945 267.604 79.2883 266.608C79.6317 265.613 79.8056 264.546 79.8 263.47V254.14H65.1168V254.9H63.714C63.1585 254.9 62.6256 255.162 62.2321 255.629C61.8385 256.095 61.6162 256.729 61.614 257.39ZM63.294 257.39C63.294 257.325 63.3049 257.26 63.3261 257.2C63.3473 257.14 63.3784 257.086 63.4175 257.04C63.4566 256.994 63.503 256.958 63.5539 256.934C63.6048 256.91 63.6593 256.899 63.714 256.9H65.1168V263.47C65.1168 263.56 65.1168 263.65 65.1168 263.74L63.4368 261.74C63.3965 261.695 63.3644 261.641 63.3427 261.581C63.321 261.521 63.3101 261.456 63.3108 261.39L63.294 257.39Z" fill="white"/>
<path d="M83.2776 273H62.16C61.1944 272.898 60.2957 272.37 59.64 271.52H85.764C85.1181 272.363 84.2319 272.891 83.2776 273Z" fill="#407BFF"/>
<path opacity="0.5" d="M83.2776 273H62.16C61.1944 272.898 60.2957 272.37 59.64 271.52H85.764C85.1181 272.363 84.2319 272.891 83.2776 273Z" fill="white"/>
<path d="M367.382 260.76C367.273 256.76 364.736 255.82 361.427 255.37V253.92C361.422 253.752 361.363 253.593 361.261 253.477C361.158 253.361 361.022 253.297 360.881 253.3H349.44C349.369 253.297 349.299 253.311 349.233 253.341C349.167 253.371 349.106 253.416 349.055 253.473C349.003 253.531 348.962 253.6 348.933 253.677C348.904 253.753 348.888 253.836 348.886 253.92V272.83H361.435V270.76C364.745 270.32 367.282 264.74 367.382 260.76ZM361.427 268.32V257.82C363.863 258.24 365.543 258.64 365.182 261.54C364.896 263.86 363.367 268 361.427 268.32Z" fill="#407BFF"/>
<g opacity="0.5">
<path d="M367.382 260.76C367.273 256.76 364.736 255.82 361.427 255.37V253.92C361.422 253.752 361.363 253.593 361.261 253.477C361.158 253.361 361.022 253.297 360.881 253.3H349.44C349.369 253.297 349.299 253.311 349.233 253.341C349.167 253.371 349.106 253.416 349.055 253.473C349.003 253.531 348.962 253.6 348.933 253.677C348.904 253.753 348.888 253.836 348.886 253.92V272.83H361.435V270.76C364.745 270.32 367.282 264.74 367.382 260.76ZM361.427 268.32V257.82C363.863 258.24 365.543 258.64 365.182 261.54C364.896 263.86 363.367 268 361.427 268.32Z" fill="white"/>
</g>
<path d="M214.948 248.73H205.044V272.68H214.948V248.73Z" fill="#407BFF"/>
<path opacity="0.5" d="M214.948 248.73H205.044V272.68H214.948V248.73Z" fill="white"/>
<path d="M219.425 273.11H200.659L205.237 268.32H214.847L219.425 273.11Z" fill="#407BFF"/>
<path opacity="0.5" d="M219.425 273.11H200.659L205.237 268.32H214.847L219.425 273.11Z" fill="white"/>
<path d="M260.677 265.36H213.772L222.247 273.14H269.144L260.677 265.36Z" fill="#407BFF"/>
<path opacity="0.4" d="M260.677 265.36H213.772L222.247 273.14H269.144L260.677 265.36Z" fill="white"/>
<path d="M214.855 273.14L213.772 265.36L222.247 273.14H214.855Z" fill="#407BFF"/>
<path opacity="0.5" d="M214.855 273.14L213.772 265.36L222.247 273.14H214.855Z" fill="black"/>
<path d="M252.445 192.04H167.076C166.181 192.04 165.455 192.904 165.455 193.97V256.29C165.455 257.356 166.181 258.22 167.076 258.22H252.445C253.341 258.22 254.066 257.356 254.066 256.29V193.97C254.066 192.904 253.341 192.04 252.445 192.04Z" fill="#407BFF"/>
<path opacity="0.5" d="M250.757 196.18H168.672V253.85H250.757V196.18Z" fill="black"/>
<path opacity="0.4" d="M248.144 208.04H206.724V241.99H248.144V208.04Z" fill="black"/>
<path d="M248.144 208.04H206.724V211.15H248.144V208.04Z" fill="#407BFF"/>
<path d="M214.318 226.82L221.088 231.28C221.346 231.428 221.577 231.635 221.768 231.89C221.884 232.09 221.943 232.328 221.936 232.57C221.937 232.739 221.909 232.907 221.854 233.063C221.799 233.22 221.719 233.361 221.617 233.48C221.524 233.599 221.41 233.694 221.285 233.76C221.159 233.825 221.024 233.859 220.886 233.86C220.585 233.819 220.297 233.692 220.046 233.49L211.31 227.71C211.171 227.627 211.053 227.499 210.971 227.341C210.889 227.183 210.845 227.001 210.845 226.815C210.845 226.629 210.889 226.447 210.971 226.289C211.053 226.131 211.171 226.003 211.31 225.92L220.046 220.14C220.299 219.946 220.587 219.826 220.886 219.79C221.024 219.788 221.161 219.819 221.289 219.883C221.416 219.947 221.531 220.041 221.626 220.16C221.728 220.276 221.809 220.416 221.864 220.571C221.918 220.725 221.946 220.892 221.945 221.06C221.952 221.302 221.893 221.541 221.777 221.74C221.586 221.995 221.355 222.202 221.096 222.35L214.318 226.82Z" fill="white"/>
<path d="M231.739 218.49L225.019 235.68C224.912 235.992 224.755 236.278 224.557 236.52C224.375 236.689 224.15 236.778 223.919 236.77C223.782 236.773 223.645 236.742 223.518 236.68C223.391 236.618 223.276 236.526 223.18 236.41C223.081 236.306 223.001 236.178 222.946 236.035C222.892 235.892 222.862 235.737 222.86 235.58C222.885 235.229 222.97 234.889 223.112 234.58L229.832 217.4C229.937 217.094 230.088 216.812 230.278 216.57C230.462 216.399 230.69 216.307 230.924 216.31C231.06 216.308 231.195 216.338 231.321 216.4C231.447 216.462 231.56 216.554 231.655 216.67C231.75 216.775 231.826 216.901 231.878 217.042C231.93 217.184 231.957 217.336 231.958 217.49C231.945 217.838 231.871 218.179 231.739 218.49Z" fill="white"/>
<path d="M240.164 226.82L233.394 222.35C233.139 222.196 232.908 221.99 232.714 221.74C232.597 221.541 232.538 221.302 232.546 221.06C232.544 220.892 232.572 220.725 232.627 220.571C232.682 220.416 232.763 220.276 232.865 220.16C232.962 220.041 233.078 219.947 233.207 219.883C233.335 219.82 233.473 219.788 233.612 219.79C233.911 219.828 234.199 219.948 234.452 220.14L243.188 225.92C243.328 226.003 243.446 226.131 243.528 226.289C243.61 226.447 243.654 226.629 243.654 226.815C243.654 227.001 243.61 227.183 243.528 227.341C243.446 227.499 243.328 227.627 243.188 227.71L234.452 233.49C234.201 233.69 233.913 233.817 233.612 233.86C233.47 233.862 233.33 233.828 233.199 233.761C233.069 233.694 232.952 233.595 232.856 233.47C232.757 233.352 232.678 233.212 232.625 233.057C232.572 232.903 232.545 232.737 232.546 232.57C232.54 232.328 232.598 232.09 232.714 231.89C232.908 231.64 233.139 231.434 233.394 231.28L240.164 226.82Z" fill="white"/>
<path d="M174.846 201.5H172.04V204.84H174.846V201.5Z" fill="white"/>
<path d="M174.846 210.15H172.04V213.49H174.846V210.15Z" fill="white"/>
<path d="M174.846 218.79H172.04V222.13H174.846V218.79Z" fill="white"/>
<path d="M174.846 227.43H172.04V230.77H174.846V227.43Z" fill="white"/>
<path d="M174.846 236.07H172.04V239.41H174.846V236.07Z" fill="white"/>
<path d="M174.846 244.71H172.04V248.05H174.846V244.71Z" fill="white"/>
<path d="M188.689 202.26H177.509V203.26H188.689V202.26Z" fill="white"/>
<path d="M184.094 210.92H180.113V211.92H184.094V210.92Z" fill="white"/>
<path d="M201.424 220.64H197.442V221.64H201.424V220.64Z" fill="white"/>
<path d="M184.094 228.35H180.113V229.35H184.094V228.35Z" fill="white"/>
<path d="M189.832 228.35H185.85V229.35H189.832V228.35Z" fill="white"/>
<path d="M196.022 220.64H185.85V221.64H196.022V220.64Z" fill="white"/>
<path d="M198.475 228.35H191.78V229.35H198.475V228.35Z" fill="white"/>
<path d="M195.737 246.88H191.755V247.88H195.737V246.88Z" fill="white"/>
<path d="M201.482 246.88H197.501V247.88H201.482V246.88Z" fill="white"/>
<path d="M205.649 246.88H203.423V247.88H205.649V246.88Z" fill="white"/>
<path d="M198.475 210.92H186.085V211.92H198.475V210.92Z" fill="white"/>
<path d="M189.832 237.38H185.85V238.38H189.832V237.38Z" fill="white"/>
<path d="M193.469 237.38H191.167V238.38H193.469V237.38Z" fill="white"/>
<path d="M201.726 237.38H195.224V238.38H201.726V237.38Z" fill="white"/>
<path d="M202.81 164.5C202.6 176.6 192.041 186.75 179.214 187.15C175.275 187.308 171.354 186.445 167.723 184.62C166.429 188.42 163.708 191.68 155.904 193.14C164.044 185.65 159.592 179.31 157.735 173.74C156.775 171.308 156.295 168.647 156.332 165.96C156.542 153.85 167.101 143.72 179.928 143.31C192.755 142.9 203.011 152.4 202.81 164.5Z" fill="#407BFF"/>
<path d="M179.844 151.83H168.664V152.83H179.844V151.83Z" fill="white"/>
<path d="M175.249 160.5H171.268V161.5H175.249V160.5Z" fill="white"/>
<path d="M192.578 170.22H188.597V171.22H192.578V170.22Z" fill="white"/>
<path d="M175.249 177.93H171.268V178.93H175.249V177.93Z" fill="white"/>
<path d="M180.995 177.93H177.013V178.93H180.995V177.93Z" fill="white"/>
<path d="M187.186 170.22H177.013V171.22H187.186V170.22Z" fill="white"/>
<path d="M189.63 177.93H182.935V178.93H189.63V177.93Z" fill="white"/>
<path d="M189.638 160.5H177.248V161.5H189.638V160.5Z" fill="white"/>
<path d="M251.303 393.75L245.179 391.57L246.607 373.7L252.731 375.88L251.303 393.75Z" fill="#7F3E3B"/>
<path opacity="0.2" d="M253.235 371.84L247.111 369.67L246.313 379.68L252.504 381.05L253.235 371.84Z" fill="black"/>
<path d="M287.549 283.38C287.549 283.38 245.44 287.61 246.473 309.38C247.313 327.2 249.539 322.38 245.179 375.38L255.772 376.08C255.772 376.08 266.549 332.74 265.096 315.52C276.965 315.52 304.139 316.76 308.087 304.01C310.046 297.535 310.999 290.691 310.901 283.81L287.549 283.38Z" fill="#407BFF"/>
<path d="M257.452 378.48L243.608 375.66L243.835 368.37L258.166 372.16L257.452 378.48Z" fill="#263238"/>
<path d="M244.549 388.57L251.622 390.24C251.75 390.276 251.863 390.368 251.938 390.497C252.012 390.627 252.043 390.785 252.025 390.94L251.437 398.94C251.427 399.128 251.385 399.313 251.314 399.481C251.242 399.65 251.144 399.801 251.023 399.924C250.903 400.046 250.763 400.139 250.612 400.197C250.461 400.255 250.302 400.276 250.144 400.26C247.691 399.62 246.532 399.15 243.424 398.41C241.508 397.96 237.132 396.87 234.469 396.51C231.806 396.15 232.126 392.45 233.276 392.26C238.451 391.45 241.391 390.45 243.398 388.91C243.73 388.622 244.143 388.5 244.549 388.57Z" fill="#263238"/>
<path d="M241.374 390C241.931 390.09 242.494 390.11 243.054 390.06C243.082 390.061 243.11 390.051 243.133 390.031C243.156 390.011 243.172 389.983 243.18 389.95C243.193 389.921 243.199 389.888 243.199 389.855C243.199 389.822 243.193 389.789 243.18 389.76C243.004 389.55 241.416 387.76 240.601 387.96C240.507 387.978 240.418 388.027 240.346 388.101C240.273 388.175 240.219 388.272 240.19 388.38C240.123 388.537 240.093 388.712 240.102 388.888C240.111 389.064 240.158 389.233 240.24 389.38C240.537 389.752 240.943 389.974 241.374 390ZM242.726 389.73C241.559 389.73 240.736 389.57 240.492 389.16C240.442 389.064 240.416 388.953 240.416 388.84C240.416 388.727 240.442 388.616 240.492 388.52C240.505 388.466 240.53 388.418 240.564 388.379C240.598 388.341 240.64 388.313 240.685 388.3C241.08 388.2 242.071 389 242.76 389.74L242.726 389.73Z" fill="#407BFF"/>
<path d="M243.062 390.07H243.13C243.154 390.059 243.175 390.042 243.193 390.019C243.21 389.996 243.223 389.969 243.23 389.94C243.23 389.85 243.692 387.72 243.155 386.87C243.089 386.756 243.002 386.663 242.899 386.599C242.797 386.534 242.683 386.5 242.567 386.5C242.441 386.478 242.313 386.508 242.203 386.584C242.093 386.661 242.008 386.779 241.962 386.92C241.702 387.71 242.424 389.46 242.987 390.03C242.996 390.043 243.008 390.054 243.021 390.061C243.034 390.068 243.048 390.071 243.062 390.07ZM242.626 386.86C242.743 386.889 242.847 386.967 242.92 387.08C243.161 387.87 243.188 388.731 242.995 389.54C242.483 388.857 242.212 387.965 242.239 387.05C242.239 386.95 242.332 386.84 242.55 386.85L242.626 386.86Z" fill="#407BFF"/>
<path d="M224.003 396.53L218.173 393.41L222.205 376.29L228.035 379.41L224.003 396.53Z" fill="#7F3E3B"/>
<path opacity="0.2" d="M229.018 375L223.188 371.88L221.113 380.71L226.943 383.83L229.018 375Z" fill="black"/>
<path d="M275.016 283.38C274.739 283.38 227.808 289.13 227.749 308.08C227.648 339.42 220.13 375.34 220.13 375.34L229.37 380.81C229.37 380.81 245.524 341.87 245.28 317.44C258.191 313.03 291.589 320.44 295.537 307.7C298.771 297.28 297.024 283.38 297.024 283.38H275.016Z" fill="#407BFF"/>
<path d="M230.882 382.4L218.45 375.74L219.45 369.68L232.562 375.07L230.882 382.4Z" fill="#263238"/>
<path d="M218.753 387.66L225.842 389.41C225.976 389.463 226.089 389.57 226.161 389.713C226.233 389.856 226.26 390.025 226.237 390.19L225.683 398.94C225.582 399.89 225.011 400.54 224.398 400.39C221.945 399.72 220.786 399.2 217.678 398.39C215.762 397.93 210.546 396.39 207.917 395.6C205.288 394.81 205.876 390.8 207.077 390.77C212.276 390.68 215.645 389.67 217.644 387.94C217.803 387.805 217.983 387.71 218.174 387.662C218.365 387.613 218.562 387.613 218.753 387.66Z" fill="#263238"/>
<path d="M215.88 389.55C216.373 389.227 216.838 388.845 217.266 388.41C217.288 388.386 217.304 388.356 217.313 388.323C217.321 388.29 217.323 388.254 217.316 388.22C217.308 388.187 217.291 388.158 217.269 388.137C217.247 388.115 217.219 388.103 217.19 388.1C216.947 388.1 214.78 387.72 214.217 388.47C214.155 388.555 214.112 388.657 214.091 388.767C214.071 388.877 214.073 388.992 214.099 389.1C214.124 389.273 214.187 389.436 214.281 389.571C214.376 389.706 214.498 389.809 214.637 389.87C215.07 389.952 215.514 389.838 215.88 389.55ZM216.829 388.38C215.914 389.23 215.149 389.64 214.754 389.5C214.666 389.453 214.59 389.379 214.532 389.286C214.475 389.193 214.439 389.084 214.427 388.97C214.413 388.918 214.411 388.863 214.421 388.81C214.432 388.758 214.454 388.709 214.486 388.67C214.738 388.31 215.88 388.28 216.787 388.38H216.829Z" fill="#407BFF"/>
<path d="M217.224 388.41L217.283 388.36C217.297 388.335 217.305 388.305 217.305 388.275C217.305 388.245 217.297 388.215 217.283 388.19C217.241 388.12 216.544 386.07 215.695 385.76C215.586 385.719 215.469 385.708 215.356 385.729C215.242 385.75 215.134 385.801 215.04 385.88C214.927 385.952 214.838 386.067 214.788 386.207C214.737 386.347 214.729 386.503 214.763 386.65C214.939 387.48 216.392 388.37 217.14 388.43L217.224 388.41ZM215.267 386.13C215.322 386.101 215.382 386.086 215.443 386.086C215.504 386.086 215.564 386.101 215.62 386.13C216.211 386.595 216.664 387.27 216.913 388.06C216.158 387.873 215.493 387.347 215.057 386.59C215.006 386.51 215.057 386.35 215.208 386.21L215.267 386.13Z" fill="#407BFF"/>
<path d="M290.959 222.92C292.194 226.08 293.21 229.12 294.227 232.28C295.243 235.44 296.142 238.6 296.974 241.84C297.805 245.08 298.528 248.4 299.107 251.84C299.74 255.414 300.055 259.057 300.048 262.71C300.039 264.855 299.77 266.987 299.25 269.04C298.921 270.297 298.449 271.495 297.847 272.6C297.492 273.222 297.09 273.804 296.646 274.34L296.285 274.76C296.083 274.96 295.865 275.18 295.655 275.35C295.3 275.637 294.923 275.885 294.529 276.09C293.944 276.389 293.337 276.62 292.715 276.78C292.224 276.901 291.727 276.988 291.228 277.04C290.375 277.1 289.519 277.1 288.666 277.04C287.151 276.951 285.641 276.75 284.147 276.44C278.571 275.232 273.11 273.369 267.842 270.88L269.06 265.37C274.394 266.13 279.838 266.94 284.97 267.22C286.247 267.22 287.49 267.29 288.649 267.22C289.165 267.183 289.679 267.106 290.186 266.99C290.606 266.9 290.968 266.72 290.842 266.73C290.757 266.76 290.678 266.808 290.606 266.87C290.521 266.929 290.442 266.999 290.371 267.08C290.399 267.025 290.425 266.968 290.447 266.91C290.555 266.624 290.639 266.326 290.699 266.02C290.883 264.921 290.959 263.8 290.926 262.68C290.798 259.816 290.441 256.973 289.859 254.19C289.288 251.19 288.548 248.27 287.742 245.3C286.936 242.33 286.062 239.36 285.104 236.4C284.147 233.44 283.139 230.47 282.148 227.68L290.959 222.92Z" fill="#7F3E3B"/>
<path d="M271.379 266.87L265.81 263.14L263.012 270.32C263.012 270.32 269.522 273.55 270.892 271.53L271.379 266.87Z" fill="#7F3E3B"/>
<path d="M261.299 264.5L258.754 269.3L263.012 270.27L265.81 263.09L261.299 264.5Z" fill="#7F3E3B"/>
<path d="M277.973 228.62C276.906 231.81 275.789 234.86 274.613 237.95C273.437 241.04 272.261 244.08 271.018 247.12C268.514 253.309 265.709 259.32 262.618 265.12C261.778 266.6 260.938 268.07 259.997 269.54C259.526 270.28 259.006 271.01 258.451 271.76C258.149 272.14 257.905 272.49 257.552 272.88L257.048 273.46L256.763 273.78C255.963 274.594 255.022 275.188 254.008 275.52C253.473 275.701 252.928 275.838 252.378 275.93C251.481 276.058 250.576 276.102 249.673 276.06C248.113 276.002 246.559 275.818 245.02 275.51C239.325 274.312 233.747 272.429 228.371 269.89L229.597 264.37C235.032 265.15 240.584 265.98 245.809 266.24C247.041 266.295 248.275 266.275 249.505 266.18C250.001 266.131 250.492 266.038 250.975 265.9C251.132 265.853 251.284 265.786 251.429 265.7C251.479 265.7 251.429 265.63 251.202 265.8C251.118 265.852 251.041 265.919 250.975 266L251.059 265.88L251.294 265.57C251.446 265.39 251.63 265.09 251.807 264.85C252.151 264.33 252.504 263.77 252.857 263.16C253.554 261.97 254.234 260.65 254.906 259.31C256.25 256.63 257.502 253.78 258.728 250.9C259.955 248.02 261.131 245.08 262.29 242.12C264.6 236.22 266.86 230.12 269.01 224.22L277.973 228.62Z" fill="#7F3E3B"/>
<path d="M231.983 265.81L226.405 262L223.608 269.18C223.608 269.18 230.118 272.42 231.496 270.4L231.983 265.81Z" fill="#7F3E3B"/>
<path d="M221.903 263.45L219.349 268.24L223.608 269.21L226.405 262.03L221.903 263.45Z" fill="#7F3E3B"/>
<path d="M292.396 193.14L288.834 198.05L283.399 204.74L283.811 205.95C284.23 207.187 284.474 208.498 284.533 209.83C284.659 212.51 284.441 214.78 280.888 216.6C280.888 216.6 277.158 222.4 286.028 220.79C294.899 219.18 296.234 213.7 296.234 213.7C292.32 210.37 292.085 199.3 292.396 193.14Z" fill="#7F3E3B"/>
<path d="M274.31 187.6C274.31 188.26 274.033 188.82 273.664 188.84C273.294 188.86 273 188.34 272.992 187.68C272.983 187.02 273.277 186.46 273.638 186.44C274 186.42 274.302 186.94 274.31 187.6Z" fill="#263238"/>
<path d="M276.167 185.14C276.113 185.139 276.06 185.123 276.013 185.091C275.966 185.06 275.926 185.015 275.898 184.96C275.68 184.536 275.384 184.176 275.032 183.91C274.679 183.643 274.28 183.475 273.865 183.42C273.779 183.415 273.698 183.37 273.638 183.296C273.579 183.222 273.546 183.123 273.546 183.02C273.546 182.968 273.555 182.917 273.572 182.87C273.589 182.822 273.614 182.78 273.645 182.744C273.677 182.708 273.714 182.681 273.755 182.663C273.795 182.645 273.839 182.637 273.882 182.64C274.405 182.695 274.911 182.896 275.357 183.226C275.803 183.556 276.179 184.006 276.452 184.54C276.497 184.628 276.512 184.733 276.493 184.834C276.474 184.935 276.424 185.023 276.352 185.08C276.295 185.118 276.232 185.139 276.167 185.14Z" fill="#263238"/>
<path d="M274.109 188C273.656 189.8 273.007 191.522 272.177 193.12C272.522 193.352 272.905 193.49 273.3 193.524C273.695 193.559 274.092 193.489 274.462 193.32L274.109 188Z" fill="#630F0F"/>
<path d="M292.9 184.27C292.572 192.43 292.723 197.27 289.321 201.59C288.228 203.025 286.825 204.077 285.266 204.632C283.707 205.186 282.049 205.223 280.474 204.739C278.898 204.254 277.464 203.265 276.326 201.88C275.187 200.495 274.389 198.766 274.016 196.88C272.471 189.65 273.277 177.52 279.896 173.88C281.321 173.04 282.906 172.663 284.492 172.787C286.078 172.911 287.609 173.532 288.929 174.586C290.249 175.641 291.311 177.092 292.008 178.792C292.705 180.493 293.013 182.383 292.9 184.27Z" fill="#7F3E3B"/>
<path d="M296.008 187C295.019 190.461 293.51 193.68 291.556 196.5L282.635 198.5C282.635 198.5 275.587 194.99 277.469 189.21C276.276 188.01 276.721 184.3 277.561 182.26C278.237 182.921 279.091 183.27 279.966 183.243C280.841 183.215 281.678 182.813 282.324 182.11C282.594 182.613 282.958 183.035 283.388 183.344C283.817 183.652 284.301 183.838 284.801 183.887C285.301 183.937 285.804 183.848 286.27 183.628C286.736 183.408 287.154 183.063 287.49 182.62C287.872 183.06 288.335 183.389 288.842 183.581C289.349 183.773 289.886 183.822 290.412 183.726C290.938 183.629 291.437 183.388 291.872 183.023C292.306 182.658 292.664 182.177 292.916 181.62C293.465 182.028 294.107 182.221 294.752 182.17C295.397 182.12 296.013 181.83 296.512 181.34L296.638 181.2C296.758 183.164 296.544 185.137 296.008 187Z" fill="#263238"/>
<path opacity="0.1" d="M296.008 187C295.019 190.461 293.51 193.68 291.556 196.5L282.635 198.5C282.635 198.5 275.587 194.99 277.469 189.21C276.276 188.01 276.721 184.3 277.561 182.26C278.237 182.921 279.091 183.27 279.966 183.243C280.841 183.215 281.678 182.813 282.324 182.11C282.594 182.613 282.958 183.035 283.388 183.344C283.817 183.652 284.301 183.838 284.801 183.887C285.301 183.937 285.804 183.848 286.27 183.628C286.736 183.408 287.154 183.063 287.49 182.62C287.872 183.06 288.335 183.389 288.842 183.581C289.349 183.773 289.886 183.822 290.412 183.726C290.938 183.629 291.437 183.388 291.872 183.023C292.306 182.658 292.664 182.177 292.916 181.62C293.465 182.028 294.107 182.221 294.752 182.17C295.397 182.12 296.013 181.83 296.512 181.34L296.638 181.2C296.758 183.164 296.544 185.137 296.008 187Z" fill="white"/>
<path d="M297.293 177.1C297.535 177.776 297.602 178.523 297.485 179.244C297.368 179.966 297.073 180.629 296.638 181.15L296.512 181.29C296.013 181.78 295.397 182.07 294.752 182.12C294.107 182.171 293.465 181.978 292.916 181.57C292.664 182.127 292.306 182.608 291.872 182.973C291.437 183.338 290.938 183.579 290.412 183.676C289.886 183.772 289.349 183.723 288.842 183.531C288.335 183.339 287.872 183.01 287.49 182.57C287.154 183.013 286.736 183.358 286.27 183.578C285.804 183.798 285.301 183.887 284.801 183.837C284.301 183.788 283.817 183.602 283.388 183.294C282.958 182.985 282.594 182.563 282.324 182.06C281.678 182.763 280.841 183.165 279.966 183.193C279.091 183.22 278.237 182.871 277.561 182.21C277.204 181.88 276.916 181.456 276.721 180.97C276.675 180.864 276.636 180.753 276.604 180.64C276.532 180.738 276.453 180.828 276.368 180.91C275.949 181.309 275.437 181.543 274.901 181.58C274.366 181.618 273.834 181.457 273.378 181.12C273.018 180.822 272.729 180.417 272.54 179.945C272.352 179.473 272.27 178.951 272.303 178.43C272.312 178.213 272.343 177.998 272.395 177.79C272.329 177.941 272.244 178.079 272.143 178.2C271.943 178.43 271.706 178.61 271.447 178.731C271.187 178.851 270.91 178.908 270.632 178.9C270.354 178.892 270.08 178.817 269.826 178.682C269.572 178.546 269.343 178.352 269.153 178.11C268.959 177.761 268.827 177.369 268.764 176.957C268.702 176.546 268.71 176.123 268.789 175.716C268.867 175.308 269.014 174.924 269.221 174.586C269.428 174.248 269.691 173.964 269.993 173.75C270.472 173.418 271.017 173.245 271.572 173.25C272.445 173.265 273.291 173.616 273.983 174.25C273.716 173.62 273.645 172.897 273.781 172.21C273.917 171.523 274.253 170.916 274.728 170.494C275.204 170.072 275.789 169.864 276.381 169.905C276.973 169.947 277.534 170.235 277.964 170.72C277.871 170.21 277.908 169.678 278.071 169.193C278.235 168.708 278.516 168.292 278.88 168C280.039 167.2 281.971 167.89 282.912 169.23C282.912 169.23 284.206 165.51 286.44 165.93C286.927 166.01 289.22 167.22 289.162 168.2C289.174 168.262 289.174 168.328 289.162 168.39C289.193 168.313 289.23 168.24 289.271 168.17C289.518 167.773 289.843 167.455 290.219 167.244C290.594 167.033 291.007 166.935 291.421 166.96C292.319 167.039 293.197 167.317 294.008 167.78C295.747 168.63 297.595 169.58 298.603 171.47C299.611 173.36 299.099 176.5 297.293 177.1Z" fill="#263238"/>
<path d="M281.4 190C281.152 192.014 280.376 193.883 279.182 195.34C277.662 197.07 276.368 195.34 276.352 192.71C276.352 190.33 277.099 186.56 278.872 185.86C280.644 185.16 281.736 187.37 281.4 190Z" fill="#7F3E3B"/>
<path d="M308.28 216.54C307.65 214.54 304.71 212.54 302.904 212.54H301.711C299.305 212.565 296.902 212.749 294.512 213.09C289.711 213.722 284.943 214.677 280.232 215.95C278.065 216.63 275.974 217.49 274.31 218.23C272.194 219.23 270.95 219.9 270.95 219.9C270.95 219.9 273.269 238.28 274.47 256.54C275.134 266.71 274.856 276.8 275.075 283.74H310.909C312.144 275.4 311.951 268.13 312.052 253.07C312.102 244 310.867 224.77 308.28 216.54Z" fill="#263238"/>
<path opacity="0.2" d="M273.689 246.34C273.958 250.17 274.235 254.19 274.529 258.21C278.729 250.91 281.047 230.94 281.047 230.94L273.689 246.34Z" fill="black"/>
<path d="M268.918 221.24C263.785 224.68 258.754 242.24 258.754 242.24L270.514 252.79C274.999 247.74 281.56 235.21 282.274 230.2C283.416 222.56 277.141 215.76 268.918 221.24Z" fill="#263238"/>
<path d="M258.77 400.44C258.77 401.3 258.556 402.141 258.155 402.857C257.753 403.572 257.182 404.13 256.515 404.459C255.847 404.788 255.112 404.874 254.404 404.706C253.695 404.539 253.044 404.124 252.533 403.516C252.022 402.908 251.674 402.132 251.533 401.289C251.392 400.445 251.464 399.57 251.741 398.775C252.017 397.98 252.485 397.301 253.086 396.823C253.687 396.345 254.394 396.09 255.116 396.09C256.086 396.09 257.015 396.548 257.7 397.364C258.385 398.18 258.77 399.286 258.77 400.44Z" fill="#263238"/>
<path d="M313.32 400.44C313.32 401.3 313.534 402.141 313.936 402.857C314.337 403.572 314.908 404.13 315.576 404.459C316.243 404.788 316.978 404.874 317.687 404.706C318.396 404.539 319.047 404.124 319.558 403.516C320.069 402.908 320.417 402.132 320.558 401.289C320.699 400.445 320.626 399.57 320.35 398.775C320.073 397.98 319.605 397.301 319.004 396.823C318.403 396.345 317.697 396.09 316.974 396.09C316.005 396.09 315.075 396.548 314.39 397.364C313.705 398.18 313.32 399.286 313.32 400.44Z" fill="#263238"/>
<path d="M282.467 399C282.467 399.86 282.681 400.701 283.083 401.417C283.484 402.132 284.055 402.69 284.722 403.019C285.39 403.348 286.125 403.434 286.834 403.266C287.542 403.099 288.194 402.684 288.705 402.076C289.216 401.468 289.564 400.692 289.705 399.849C289.846 399.005 289.773 398.13 289.497 397.335C289.22 396.54 288.752 395.861 288.151 395.383C287.55 394.905 286.843 394.65 286.121 394.65C285.152 394.65 284.222 395.108 283.537 395.924C282.852 396.74 282.467 397.846 282.467 399Z" fill="#263238"/>
<path d="M284.987 393.68V385.27H274.52C272.466 385.267 270.415 385.494 268.397 385.95L248.909 390.45C248.472 390.551 248.083 390.845 247.819 391.273C247.555 391.7 247.437 392.23 247.487 392.757C247.536 393.284 247.751 393.769 248.088 394.116C248.424 394.463 248.858 394.647 249.304 394.63L284.987 393.68Z" fill="#263238"/>
<path d="M284.987 393.68V385.27H295.462C297.509 385.284 299.551 385.529 301.56 386L323.467 390.16C323.904 390.261 324.293 390.555 324.557 390.983C324.821 391.41 324.939 391.94 324.89 392.467C324.84 392.994 324.625 393.479 324.288 393.826C323.952 394.173 323.518 394.357 323.072 394.34L284.987 393.68Z" fill="#263238"/>
<path d="M291.463 346.77H278.502V385.28H291.463V346.77Z" fill="#263238"/>
<path d="M289.607 328.85H280.367V346.76H289.607V328.85Z" fill="#263238"/>
<path opacity="0.5" d="M280.367 334.11L289.607 336.88V328.85H280.367V334.11Z" fill="black"/>
<path d="M255.116 288.33H250.421V312.18H255.116V288.33Z" fill="#263238"/>
<path d="M278.662 328.85V225.16C278.661 223.22 279.009 221.302 279.682 219.536C280.356 217.77 281.34 216.196 282.568 214.92L288.775 208.45C290.866 206.267 293.554 205.069 296.335 205.08H318.755L329.692 219V328.85H278.662Z" fill="#407BFF"/>
<path d="M245.28 308.79H296.436V328.85H236.939C235.872 328.848 234.825 328.51 233.903 327.872C232.981 327.233 232.217 326.315 231.688 325.212C231.16 324.109 230.885 322.859 230.893 321.589C230.9 320.319 231.189 319.074 231.731 317.98C233.122 315.177 235.103 312.854 237.48 311.242C239.856 309.63 242.545 308.785 245.28 308.79Z" fill="#407BFF"/>
<path opacity="0.7" d="M329.692 219V328.85H236.939C235.872 328.848 234.825 328.51 233.903 327.872C232.981 327.233 232.217 326.315 231.688 325.212C231.16 324.109 230.885 322.859 230.893 321.589C230.9 320.319 231.189 319.074 231.731 317.98C233.122 315.177 235.104 312.855 237.48 311.243C239.857 309.632 242.545 308.786 245.28 308.79H271.043C273.072 308.79 275.019 307.83 276.454 306.122C277.889 304.413 278.695 302.096 278.695 299.68V225.16C278.694 223.22 279.042 221.302 279.716 219.536C280.39 217.77 281.374 216.196 282.601 214.92L288.809 208.45C290.9 206.267 293.588 205.069 296.369 205.08H318.788L329.692 219Z" fill="white"/>
<path d="M286.121 328.85V225.16C286.122 223.22 286.471 221.304 287.145 219.538C287.818 217.772 288.801 216.197 290.027 214.92L296.234 208.45C298.325 206.267 301.014 205.069 303.794 205.08H321.275C322.836 205.079 324.382 205.459 325.815 206.196C327.248 206.934 328.539 208.014 329.608 209.37L334.076 215.02C336.068 217.548 337.176 220.884 337.176 224.35V318.46C337.177 319.826 336.952 321.178 336.513 322.44C336.074 323.702 335.431 324.848 334.619 325.813C333.808 326.779 332.844 327.544 331.784 328.065C330.723 328.586 329.587 328.853 328.44 328.85H286.121Z" fill="#407BFF"/>
<path opacity="0.5" d="M286.121 328.85V225.16C286.122 223.22 286.471 221.304 287.145 219.538C287.818 217.772 288.801 216.197 290.027 214.92L296.234 208.45C298.325 206.267 301.014 205.069 303.794 205.08H321.275C322.836 205.079 324.382 205.459 325.815 206.196C327.248 206.934 328.539 208.014 329.608 209.37L334.076 215.02C336.068 217.548 337.176 220.884 337.176 224.35V318.46C337.177 319.826 336.952 321.178 336.513 322.44C336.074 323.702 335.431 324.848 334.619 325.813C333.808 326.779 332.844 327.544 331.784 328.065C330.723 328.586 329.587 328.853 328.44 328.85H286.121Z" fill="white"/>
<path d="M268.716 295.61C258.383 291.31 247.129 291.31 236.796 295.61C235.759 296.071 234.617 296.066 233.582 295.597C232.548 295.127 231.693 294.226 231.176 293.06C230.219 290.65 231.504 287.53 234.108 286.44C246.177 281.42 259.319 281.42 271.387 286.44C273.991 287.52 275.276 290.65 274.319 293.06C273.803 294.221 272.951 295.12 271.92 295.589C270.889 296.058 269.751 296.065 268.716 295.61Z" fill="#407BFF"/>
<path opacity="0.7" d="M268.716 295.61C258.383 291.31 247.129 291.31 236.796 295.61C235.759 296.071 234.617 296.066 233.582 295.597C232.548 295.127 231.693 294.226 231.176 293.06C230.219 290.65 231.504 287.53 234.108 286.44C246.177 281.42 259.319 281.42 271.387 286.44C273.991 287.52 275.276 290.65 274.319 293.06C273.803 294.221 272.951 295.12 271.92 295.589C270.889 296.058 269.751 296.065 268.716 295.61Z" fill="white"/>
<path d="M138.172 196.39C137.995 196.98 138.121 197.57 138.449 197.7C138.776 197.83 139.18 197.47 139.348 196.88C139.516 196.29 139.398 195.69 139.079 195.56C138.76 195.43 138.348 195.79 138.172 196.39Z" fill="#263238"/>
<path d="M138.079 197C138.148 199.059 138.45 201.098 138.978 203.06C138.555 203.202 138.111 203.235 137.676 203.156C137.241 203.076 136.826 202.887 136.458 202.6L138.079 197Z" fill="#A02724"/>
<path d="M137.365 192.37C137.396 192.385 137.429 192.393 137.462 192.393C137.495 192.393 137.528 192.385 137.558 192.37C137.928 192.23 138.319 192.193 138.702 192.263C139.085 192.332 139.45 192.506 139.768 192.77C139.801 192.799 139.838 192.82 139.878 192.832C139.918 192.844 139.959 192.846 140 192.839C140.041 192.831 140.08 192.814 140.115 192.789C140.15 192.763 140.18 192.73 140.204 192.69C140.251 192.622 140.276 192.537 140.276 192.45C140.276 192.363 140.251 192.278 140.204 192.21C139.81 191.861 139.351 191.629 138.866 191.533C138.381 191.438 137.884 191.481 137.416 191.66C137.339 191.694 137.276 191.762 137.24 191.849C137.204 191.937 137.198 192.037 137.222 192.13C137.237 192.184 137.262 192.233 137.295 192.273C137.329 192.313 137.37 192.343 137.416 192.36L137.365 192.37Z" fill="#263238"/>
<path d="M119.75 198.57C120.691 204.26 121.624 214.69 118.28 218.49C118.28 218.49 119.591 224.26 128.478 224.26C138.247 224.26 133.148 218.49 133.148 218.49C127.814 216.97 128.671 212.26 129.604 207.84L119.75 198.57Z" fill="#B55B52"/>
<path d="M121.926 188.25C120.179 195.69 118.835 199.94 120.834 204.95C123.833 212.5 134.316 213.48 137.172 204.84C139.348 196.84 141.498 188.47 136.332 183.1C135.202 181.909 133.836 181.081 132.363 180.695C130.889 180.309 129.357 180.377 127.912 180.893C126.467 181.408 125.156 182.355 124.104 183.642C123.052 184.93 122.294 186.516 121.901 188.25H121.926Z" fill="#B55B52"/>
<path d="M115.156 190.73C114.702 187.99 114.584 184.99 115.735 182.55C116.886 180.11 119.666 178.62 121.691 180.04C122.349 178.391 123.322 176.947 124.532 175.826C125.742 174.704 127.156 173.935 128.661 173.581C130.166 173.226 131.719 173.296 133.197 173.784C134.675 174.272 136.036 175.166 137.172 176.392C138.308 177.619 139.187 179.146 139.739 180.849C140.291 182.553 140.5 184.387 140.35 186.204C140.199 188.021 139.694 189.771 138.874 191.314C138.054 192.857 136.942 194.15 135.626 195.09C136.088 193.04 136.559 191 137.021 188.95C136.608 191.804 135.336 194.382 133.442 196.2L134.282 190.07C134.15 191.517 133.737 192.907 133.075 194.131C132.413 195.355 131.521 196.378 130.469 197.12L131.452 192.83C130.954 194.803 130.319 196.723 129.553 198.57C128.713 199.72 128.176 207.24 125.286 207.48C115.357 209.83 116.214 197.13 115.156 190.73Z" fill="#263238"/>
<path d="M128.52 194.29C128.352 196.198 128.712 198.118 129.545 199.76C130.662 201.9 132.3 201.08 132.905 198.89C133.442 196.89 133.501 193.44 131.947 192.05C130.393 190.66 128.755 192 128.52 194.29Z" fill="#B55B52"/>
<path d="M104.84 266.37C103.774 265.95 98.7756 262.89 97.9776 263.44C100.288 256.44 101.724 255.35 102.774 250.89C103.066 249.783 103.117 248.605 102.922 247.468C102.726 246.331 102.291 245.272 101.657 244.39C100.178 242.03 99.666 240.84 97.2132 241.13C93.8532 247.85 89.5776 256.13 87.9144 263.72C87.3516 266.27 86.9484 268.21 88.2252 270.37C89.3508 272.27 91.4256 273.03 93.3744 273.24C98.0532 273.74 105 272.72 104.908 269.41C104.857 267.32 104.84 266.37 104.84 266.37Z" fill="#B55B52"/>
<path d="M104.051 266.12L108.016 264.59L107.663 273.12C107.663 273.12 104.488 273.25 102.791 270.72L104.051 266.12Z" fill="#B55B52"/>
<path d="M112.972 264.45L112.409 271.49L107.663 273.12L108.016 264.59L112.972 264.45Z" fill="#B55B52"/>
<path d="M158.432 272.18C158.432 272.18 152.88 267 145.639 250C144.564 247.62 143.539 245.21 142.548 242.79C141.557 240.37 140.616 237.95 139.709 235.38L148.294 230.98C150.058 235.56 152.813 240.29 154.762 244.84C156.71 249.39 161.305 260.17 161.885 261.17C162.17 261.69 162.481 262.12 162.775 262.6L163.22 263.3L157.685 270.92L158.432 272.18Z" fill="#B55B52"/>
<path d="M165.698 239L164.018 236.56L163.229 232.91L168.412 227.18C169.204 228.38 169.91 229.658 170.52 231C170.653 231.309 170.717 231.653 170.705 232L170.495 238.43L165.698 239Z" fill="#B55B52"/>
<path d="M163.262 228.97L167.135 224.78L168.361 227.23L163.187 232.93L163.262 228.97Z" fill="#B55B52"/>
<path d="M165.774 237.24C165.908 236.55 166.026 237.9 166.412 237.36C167.555 235.72 169.218 235.55 170.209 237.36C171.2 239.17 170.352 256.98 168.773 262.57C167.723 266.28 167.16 269.24 164.472 271.5C163.386 272.498 162.063 273.065 160.692 273.12C160.009 273.13 159.338 272.907 158.758 272.479C158.177 272.05 157.712 271.433 157.416 270.7C156.576 268.37 159.583 259.97 160.642 257.26C163.96 248.73 164.186 245.3 165.774 237.24Z" fill="#B55B52"/>
<path d="M154.661 236.47L161.524 236.39C162.503 236.465 163.484 236.28 164.396 235.85C165.514 235.073 166.35 233.829 166.74 232.36C167.714 229.36 167.798 226.14 168.176 223C168.554 219.86 169.361 216.56 171.36 214.45C167.714 215.03 161.28 213.67 158.466 217.22C156.988 219.11 154.375 236.47 154.661 236.47Z" fill="#407BFF"/>
<path opacity="0.5" d="M154.661 236.47L161.524 236.39C162.503 236.465 163.484 236.28 164.396 235.85C165.514 235.073 166.35 233.829 166.74 232.36C167.714 229.36 167.798 226.14 168.176 223C168.554 219.86 169.361 216.56 171.36 214.45C167.714 215.03 161.28 213.67 158.466 217.22C156.988 219.11 154.375 236.47 154.661 236.47Z" fill="white"/>
<path d="M166.404 224.33C166.009 224.46 165.749 226.13 165.833 226.61L166.219 227.43L167 231.43L169.621 229.71L167.261 224.71C167.171 224.546 167.039 224.421 166.885 224.353C166.731 224.285 166.562 224.277 166.404 224.33Z" fill="#B55B52"/>
<path d="M107.209 219.92C101.077 221.59 92.0052 244.34 92.0052 244.34L104.311 254.34C107.855 248.32 111.054 242.022 113.887 235.49C117.524 226.43 113.476 218.21 107.209 219.92Z" fill="#407BFF"/>
<path d="M116.164 220.47C115.458 218.64 114.694 216.55 116.281 215.9C118.037 215.18 127.646 214.44 130.956 215.79C131.389 215.93 131.796 216.171 132.151 216.498C132.506 216.825 132.803 217.233 133.026 217.698C133.248 218.162 133.391 218.675 133.447 219.205C133.503 219.736 133.47 220.275 133.35 220.79V220.86L116.164 220.47Z" fill="#263238"/>
<path opacity="0.2" d="M110.998 233.06L102.253 252.66L104.311 254.34C104.311 254.34 108.276 247.77 111.031 242.09L110.998 233.06Z" fill="black"/>
<path d="M144.48 229.93C145.807 237.93 142.708 256.93 142.741 287.93H107.78C107.554 281.67 111.384 266.83 106.621 237.27C106.47 236.27 106.403 220.12 107.209 219.95C110.595 219.246 114.01 218.765 117.44 218.51C122.392 218.17 127.356 218.17 132.308 218.51C134.333 218.76 137.516 220.25 139.532 221.11C142.666 222.43 143.842 226 144.48 229.93Z" fill="#407BFF"/>
<path opacity="0.2" d="M135.24 237.88C136.147 244.45 139.768 253.13 143.371 258.23C143.514 254.5 143.833 250.6 143.825 247.61L135.24 237.88Z" fill="black"/>
<path d="M132.72 228C131.88 235.37 144.06 254.18 144.06 254.18L156.316 244.18C156.316 244.18 152.914 233.81 147.193 227.01C140.7 219.23 133.703 220 132.72 228Z" fill="#407BFF"/>
<path d="M172.805 391.13H179.34L180.827 373.1H174.292L172.805 391.13Z" fill="#B55B52"/>
<path opacity="0.2" d="M180.726 374.19L179.97 383.48H173.426L174.191 374.19H180.726Z" fill="black"/>
<path d="M147.025 391.13H153.56L156.845 373.1H150.31L147.025 391.13Z" fill="#B55B52"/>
<g opacity="0.2">
<path d="M150.167 374.06H156.702L155.005 383.35H148.47L150.167 374.06Z" fill="black"/>
</g>
<path d="M179.71 387.63H172.578C172.43 387.65 172.293 387.732 172.191 387.859C172.088 387.987 172.026 388.154 172.015 388.33L170.722 397.23C170.647 397.575 170.677 397.941 170.806 398.262C170.935 398.584 171.155 398.842 171.427 398.99C171.505 399.005 171.584 399.005 171.662 398.99C174.233 398.93 177.954 398.69 181.188 398.69C184.976 398.69 188.244 399 192.679 399C195.367 399 196.115 394.82 194.989 394.45C189.874 392.73 185.699 392.55 181.28 388.34C180.84 387.896 180.286 387.646 179.71 387.63Z" fill="#263238"/>
<path d="M184.901 390.52C185.741 390.52 186.581 390.38 186.824 389.93C186.894 389.811 186.931 389.67 186.931 389.525C186.931 389.38 186.894 389.239 186.824 389.12C186.713 388.909 186.539 388.756 186.337 388.69C185.245 388.34 182.977 389.89 182.868 389.96C182.839 389.977 182.816 390.005 182.803 390.039C182.789 390.074 182.785 390.113 182.792 390.15C182.797 390.186 182.81 390.22 182.831 390.247C182.853 390.274 182.88 390.292 182.91 390.3C183.566 390.448 184.233 390.522 184.901 390.52ZM185.942 389.01H186.236C186.299 389.025 186.359 389.056 186.411 389.101C186.463 389.146 186.507 389.204 186.539 389.27C186.648 389.5 186.614 389.61 186.539 389.67C186.236 390.18 184.582 390.19 183.364 389.98C184.165 389.466 185.039 389.134 185.942 389V389.01Z" fill="#407BFF"/>
<path d="M182.927 390.3H182.994C183.784 389.88 185.346 388.2 185.22 387.3C185.22 387.09 185.069 386.84 184.649 386.78C184.345 386.753 184.043 386.868 183.809 387.1C182.969 387.91 182.801 390.01 182.792 390.1C182.788 390.132 182.792 390.165 182.802 390.195C182.813 390.225 182.829 390.251 182.851 390.27C182.873 390.289 182.9 390.299 182.927 390.3ZM184.523 387.15H184.615C184.892 387.15 184.909 387.32 184.918 387.36C184.993 387.89 183.926 389.21 183.12 389.78C183.189 388.9 183.482 388.066 183.96 387.39C184.12 387.238 184.318 387.154 184.523 387.15Z" fill="#407BFF"/>
<path d="M154.022 387.63H146.681C146.534 387.651 146.398 387.732 146.297 387.86C146.196 387.988 146.135 388.154 146.126 388.33L144.833 397.23C144.763 397.583 144.799 397.953 144.936 398.277C145.073 398.601 145.301 398.857 145.58 399C145.65 399.01 145.721 399.01 145.79 399C148.352 398.94 149.604 398.7 152.83 398.7C154.82 398.7 157.366 399.01 160.112 399.01C162.859 399.01 163.212 394.83 162.086 394.46C157.046 392.76 156.702 390.46 155.089 388.18C154.955 388.002 154.791 387.86 154.607 387.765C154.422 387.67 154.223 387.624 154.022 387.63Z" fill="#263238"/>
<path d="M157.861 391.51C158.138 391.555 158.42 391.534 158.69 391.446C158.96 391.358 159.213 391.207 159.432 391C159.509 390.874 159.551 390.721 159.551 390.565C159.551 390.409 159.509 390.256 159.432 390.13C159.382 390.02 159.313 389.925 159.229 389.85C159.144 389.776 159.048 389.725 158.945 389.7C157.987 389.43 156.181 390.9 156.106 390.96C156.082 390.982 156.063 391.011 156.051 391.044C156.039 391.078 156.035 391.114 156.038 391.15C156.043 391.185 156.057 391.217 156.078 391.242C156.099 391.268 156.127 391.284 156.156 391.29C156.716 391.438 157.288 391.512 157.861 391.51ZM158.701 390.03H158.886C158.945 390.043 159.001 390.072 159.051 390.113C159.1 390.154 159.141 390.208 159.172 390.27C159.314 390.58 159.23 390.7 159.172 390.75C158.894 391.18 157.559 391.19 156.576 391C157.207 390.484 157.928 390.142 158.684 390L158.701 390.03Z" fill="#407BFF"/>
<path d="M156.24 391.3C156.92 390.86 158.231 389.16 158.088 388.3C158.066 388.162 158.005 388.038 157.915 387.948C157.824 387.859 157.71 387.81 157.592 387.81C157.475 387.796 157.357 387.811 157.245 387.852C157.132 387.893 157.028 387.96 156.937 388.05C156.181 388.79 156.022 391.05 156.013 391.13C156.012 391.164 156.018 391.197 156.032 391.227C156.045 391.257 156.065 391.282 156.089 391.3H156.24ZM157.559 388.15H157.626C157.828 388.15 157.844 388.29 157.853 388.34C157.937 388.85 157.097 390.14 156.425 390.75C156.477 389.864 156.746 389.016 157.198 388.31C157.298 388.208 157.426 388.151 157.559 388.15Z" fill="#407BFF"/>
<path d="M132.266 287.91C132.266 287.91 163.22 303.13 169.621 314.82C165.816 344.56 158.987 378.44 158.987 378.44H147.344C147.363 363.781 148.371 349.147 150.36 334.68C152.04 298.33 97.0872 335.94 107.764 287.91H132.266Z" fill="#263238"/>
<path opacity="0.3" d="M153.67 313C151.501 313.152 149.342 313.449 147.202 313.89L140.423 315.13C143.92 318.628 147.61 321.842 151.469 324.75C153.812 326.52 156.366 328.22 159.13 328.23C162.238 328.23 170.671 323.49 169.277 318.56C167.882 313.63 157.198 312.82 153.67 313Z" fill="black"/>
<path d="M142.75 287.91C142.75 287.91 171.36 292.31 187.135 303C191.99 306.29 191.335 316.86 191.184 323.82C190.846 342.497 187.835 360.968 182.28 378.44H172.553C172.553 378.44 173.048 359.57 172.721 329.12C172.62 319.99 157.139 316.98 142.01 315.92C135.604 315.44 129.438 312.839 124.207 308.409C118.977 303.98 114.89 297.898 112.409 290.85L111.376 287.91H142.75Z" fill="#263238"/>
<path d="M184.64 375.34C184.691 375.34 184.01 380.81 184.01 380.81H170.57L170.201 375.93L184.64 375.34Z" fill="#407BFF"/>
<path d="M160.112 375.34C160.163 375.34 158.878 380.81 158.878 380.81H145.438L145.681 375.93L160.112 375.34Z" fill="#407BFF"/>
<path d="M124.001 315.51L114.366 400.02L112.627 399.73L120.061 314.87L124.001 315.51Z" fill="#407BFF"/>
<path opacity="0.4" d="M123.656 318.54L114.366 400.02L112.627 399.73L119.742 318.52L123.656 318.54Z" fill="black"/>
<path d="M157.87 318.53H103.27C103.27 317.556 103.431 316.591 103.744 315.69C104.057 314.79 104.516 313.972 105.095 313.283C105.674 312.594 106.361 312.048 107.117 311.675C107.873 311.302 108.684 311.11 109.502 311.11H151.637C152.455 311.11 153.266 311.302 154.022 311.675C154.778 312.048 155.465 312.594 156.044 313.283C156.623 313.972 157.082 314.79 157.395 315.69C157.708 316.591 157.87 317.556 157.87 318.53Z" fill="#407BFF"/>
<path opacity="0.7" d="M157.87 318.53H103.27C103.27 317.556 103.431 316.591 103.744 315.69C104.057 314.79 104.516 313.972 105.095 313.283C105.674 312.594 106.361 312.048 107.117 311.675C107.873 311.302 108.684 311.11 109.502 311.11H151.637C152.455 311.11 153.266 311.302 154.022 311.675C154.778 312.048 155.465 312.594 156.044 313.283C156.623 313.972 157.082 314.79 157.395 315.69C157.708 316.591 157.87 317.556 157.87 318.53Z" fill="white"/>
<path d="M105.798 318.52L97.566 400.69H99.33L109.771 318.52H105.798Z" fill="#407BFF"/>
<path d="M155.341 318.52L163.573 400.69H161.809L151.376 318.52H155.341Z" fill="#407BFF"/>
<path opacity="0.4" d="M155.341 318.52L163.573 400.69H161.809L151.376 318.52H155.341Z" fill="black"/>
<path d="M144.329 318.52L144.488 400.69H142.733L140.356 318.52H144.329Z" fill="#407BFF"/>
</svg>
