<svg width="236" height="54" viewBox="0 0 236 54" fill="none" xmlns="http://www.w3.org/2000/svg">
<g clip-path="url(#clip0_827_6205)">
<path fill-rule="evenodd" clip-rule="evenodd" d="M50.8768 0.58957C51.4081 0.562801 51.9212 0.652631 52.4159 0.859062C53.64 1.47207 54.8371 2.1307 56.0072 2.83533C56.7674 3.39408 57.0239 4.14273 56.7768 5.0811C55.2599 6.52665 53.5214 7.54461 51.5609 8.13533C50.3785 8.05179 49.9509 7.39297 50.2782 6.15906C50.8821 5.40574 51.5947 4.77693 52.4159 4.27262C51.5571 3.95875 50.8446 3.44977 50.2782 2.7455C49.9272 1.86444 50.1267 1.1458 50.8768 0.58957Z" fill="#E7E6E6"/>
<path fill-rule="evenodd" clip-rule="evenodd" d="M21.2909 2.74555C22.0449 2.58709 22.6434 2.82675 23.0865 3.46419C23.3251 4.36609 23.5816 5.26439 23.8561 6.15911C24.8303 5.65426 25.8564 5.5046 26.9343 5.70995C27.9192 6.4092 28.0333 7.24767 27.2764 8.22521C26.3351 8.58525 25.3661 8.85474 24.3691 9.03368C24.8931 10.1417 24.9786 11.2794 24.6256 12.4472C23.2873 13.2126 22.3753 12.8533 21.8894 11.3693C21.8121 10.7626 21.6982 10.1636 21.5474 9.57267C20.5528 10.1108 19.4983 10.3204 18.3836 10.2015C17.2588 9.2288 17.2588 8.27066 18.3836 7.3269C19.2888 7.10969 20.2008 6.93003 21.1198 6.78792C20.3869 5.59605 20.3014 4.36843 20.8633 3.10487C21.0335 3.00318 21.1759 2.88335 21.2909 2.74555Z" fill="#4479FC"/>
<path fill-rule="evenodd" clip-rule="evenodd" d="M22.6597 7.41699C22.8307 7.41699 23.0017 7.41699 23.1727 7.41699C23.1727 7.65648 23.1727 7.89615 23.1727 8.13564C22.8714 8.10994 22.5863 8.16995 22.3176 8.3153C22.1588 8.10168 22.1018 7.86219 22.1466 7.59665C22.3674 7.63923 22.5384 7.57941 22.6597 7.41699Z" fill="#E0ECFD"/>
<path fill-rule="evenodd" clip-rule="evenodd" d="M40.6158 13.7051C43.015 13.7392 44.0125 14.9968 43.6085 17.478C42.6955 26.1125 41.3843 34.6751 39.6752 43.1695C39.4445 44.2582 39.017 45.2464 38.3926 46.1339C36.048 47.1472 34.9078 46.3082 34.9723 43.6186C36.0222 34.6392 37.2478 25.6867 38.6491 16.7593C38.8013 15.3562 39.4568 14.3375 40.6158 13.7051Z" fill="#51CCF5"/>
<path fill-rule="evenodd" clip-rule="evenodd" d="M40.7867 14.7829C41.9978 14.6212 42.6249 15.1602 42.6678 16.3998C41.8449 25.4062 40.5054 34.33 38.649 43.1693C38.4515 43.9742 38.138 44.7216 37.7084 45.4151C36.3372 45.8319 35.7671 45.2929 35.9983 43.7981C36.884 36.0278 37.8815 28.2718 38.991 20.532C39.1886 19.0157 39.4736 17.5173 39.8461 16.0405C40.0115 15.48 40.3249 15.0613 40.7867 14.7829Z" fill="#07374D"/>
<path fill-rule="evenodd" clip-rule="evenodd" d="M30.013 16.7588C30.6049 16.696 31.0325 16.9349 31.2956 17.4775C31.5576 19.6262 31.6146 21.7822 31.4667 23.9453C31.0817 24.2831 30.6542 24.5525 30.1841 24.7538C26.4537 26.3851 22.7483 28.0613 19.0681 29.7843C23.1212 31.403 27.1686 33.02 31.2101 34.6351C31.3743 34.8902 31.5168 35.1597 31.6377 35.4436C31.7658 37.4253 31.7086 39.4015 31.4667 41.3724C31.4027 41.5377 31.3172 41.6868 31.2101 41.8216C30.6239 41.9473 30.0537 41.888 29.5 41.6419C23.4404 38.7026 17.3694 35.7975 11.287 32.9283C11.2153 32.7181 11.1014 32.5385 10.9449 32.3894C10.8309 30.652 10.8309 28.9165 10.9449 27.1792C11.2014 26.7893 11.5149 26.4605 11.8855 26.1911C17.9227 22.9895 23.9651 19.8454 30.013 16.7588Z" fill="#4DCBF5"/>
<path fill-rule="evenodd" clip-rule="evenodd" d="M48.3119 17.4778C49.2191 17.4455 50.0742 17.6557 50.8771 18.1067C56.7375 20.7656 62.5519 23.5216 68.3206 26.3711C68.6804 26.7376 68.88 27.1867 68.9192 27.7185C69.0799 29.2941 69.023 30.8518 68.7481 32.3897C68.5486 32.5999 68.3492 32.8083 68.1496 33.0185C62.0594 36.0979 56.017 39.2725 50.0221 42.5406C49.2949 42.7939 48.8674 42.5244 48.7395 41.7321C48.648 40.6523 48.5341 39.5744 48.3974 38.4982C48.2442 37.519 48.3011 36.5614 48.5684 35.6236C48.8999 35.1547 49.3274 34.8259 49.851 34.6355C53.4984 33.1587 57.0897 31.5417 60.625 29.7846C56.5509 28.2377 52.5037 26.6208 48.4829 24.9338C48.0951 24.6535 47.8957 24.2654 47.8844 23.766C47.7703 22.0897 47.7703 20.4117 47.8844 18.7355C47.9492 18.2809 48.0918 17.8623 48.3119 17.4778Z" fill="#4ECBF5"/>
<path fill-rule="evenodd" clip-rule="evenodd" d="M89.0135 17.6578C92.2986 17.1673 95.32 17.8572 98.0772 19.7239C99.9962 21.4504 101.022 23.6369 101.155 26.2815C99.3313 26.2815 97.5072 26.2815 95.683 26.2815C95.3104 24.3034 94.1704 23.1356 92.2627 22.7781C89.2808 22.4745 87.3141 23.8219 86.3627 26.8205C85.5747 29.934 85.8598 32.929 87.2178 35.8035C89.1679 37.9846 91.4196 38.3745 93.9729 36.9713C94.8704 36.1934 95.4405 35.2053 95.683 34.0069C97.5036 33.8273 99.3279 33.768 101.155 33.8273C100.527 38.6494 97.962 41.6138 93.4598 42.7205C87.7184 43.7625 83.5285 41.576 80.8903 36.1629C80.0119 33.3601 79.7269 30.4856 80.0352 27.5391C80.9729 22.1529 83.9656 18.8597 89.0135 17.6578Z" fill="#43C9F5"/>
<path fill-rule="evenodd" clip-rule="evenodd" d="M116.376 17.6572C122.068 18.3974 125.403 21.7499 126.38 27.7182C126.966 31.7768 126.168 35.4904 123.986 38.8572C121.982 41.3024 119.445 42.6193 116.376 42.8098C116.376 41.0724 116.376 39.3369 116.376 37.5996C118.645 36.9762 119.928 35.4185 120.224 32.9284C120.724 30.3341 120.496 27.8189 119.539 25.3827C118.822 24.1807 117.825 23.3417 116.547 22.8674C116.376 21.1355 116.319 19.3981 116.376 17.6572Z" fill="#43C9F5"/>
<path fill-rule="evenodd" clip-rule="evenodd" d="M174.52 25.9216C174.52 25.9809 174.52 26.042 174.52 26.1013C174.349 23.3183 174.293 20.503 174.349 17.6572C172.468 17.6572 170.587 17.6572 168.706 17.6572C168.706 25.6216 168.706 33.5877 168.706 41.5521C168.535 33.5572 168.478 25.5335 168.535 17.4775C170.531 17.4775 172.525 17.4775 174.52 17.4775C174.52 20.2928 174.52 23.1063 174.52 25.9216Z" fill="#72D6F7"/>
<path fill-rule="evenodd" clip-rule="evenodd" d="M182.558 17.4775C184.496 17.4775 186.435 17.4775 188.373 17.4775C188.373 25.503 188.373 33.5267 188.373 41.5521C186.435 41.5521 184.496 41.5521 182.558 41.5521C182.558 38.1386 182.558 34.725 182.558 31.3114C179.849 31.2521 177.17 31.3114 174.521 31.4911C174.521 34.8454 174.521 38.1978 174.521 41.5521C172.583 41.5521 170.644 41.5521 168.706 41.5521C168.706 33.5877 168.706 25.6216 168.706 17.6572C170.587 17.6572 172.468 17.6572 174.35 17.6572C174.293 20.503 174.35 23.3183 174.521 26.1013C177.2 26.1013 179.878 26.1013 182.558 26.1013C182.558 23.2267 182.558 20.3521 182.558 17.4775Z" fill="#41C9F5"/>
<path fill-rule="evenodd" clip-rule="evenodd" d="M198.462 17.6572C198.433 23.0471 198.462 28.4369 198.547 33.8267C198.77 36.0725 199.967 37.1504 202.139 37.0606C204.406 37.2529 205.718 36.1749 206.072 33.8267C206.157 28.4369 206.187 23.0471 206.157 17.6572C208.039 17.6572 209.92 17.6572 211.801 17.6572C211.801 23.1063 211.801 28.5573 211.801 34.0064C211.572 37.8116 209.747 40.3556 206.329 41.642C202.575 42.8529 199.042 42.375 195.726 40.2047C193.824 38.5536 192.854 36.4282 192.818 33.8267C192.818 28.4369 192.818 23.0471 192.818 17.6572C194.7 17.6572 196.581 17.6572 198.462 17.6572Z" fill="#41C9F5"/>
<path fill-rule="evenodd" clip-rule="evenodd" d="M206.158 17.6577C208.065 17.4798 210.004 17.4187 211.973 17.478C212.029 23.0188 211.973 28.5272 211.802 34.0068C211.802 28.5577 211.802 23.1068 211.802 17.6577C209.921 17.6577 208.039 17.6577 206.158 17.6577Z" fill="#70D6F7"/>
<path fill-rule="evenodd" clip-rule="evenodd" d="M229.074 17.6579C224.855 17.6579 220.638 17.6579 216.419 17.6579C216.419 25.6223 216.419 33.5885 216.419 41.5528C216.248 33.5579 216.191 25.5343 216.248 17.4783C220.552 17.419 224.827 17.4783 229.074 17.6579Z" fill="#6ED5F7"/>
<path fill-rule="evenodd" clip-rule="evenodd" d="M229.074 17.6572C233.868 17.9698 235.834 20.6037 234.974 25.5623C234.41 27.084 233.411 28.162 231.981 28.7962C235.256 30.0934 236.481 32.5493 235.658 36.1623C234.769 39.0135 232.915 40.7203 230.1 41.2826C225.546 41.5414 220.985 41.6312 216.419 41.5521C216.419 33.5878 216.419 25.6216 216.419 17.6572C220.638 17.6572 224.855 17.6572 229.074 17.6572Z" fill="#42C9F5"/>
<path fill-rule="evenodd" clip-rule="evenodd" d="M111.587 17.8369C111.986 17.8369 112.386 17.8369 112.785 17.8369C112.813 19.5742 112.785 21.3116 112.699 23.0471C110.271 24.7 109.217 27.0643 109.535 30.1437C109.406 32.1793 109.834 34.0657 110.818 35.803C111.346 36.4785 111.973 37.0175 112.699 37.42C112.785 39.2148 112.813 41.0114 112.785 42.8098C107.413 41.7157 104.363 38.3021 103.635 32.5691C102.836 27.5656 104.175 23.3435 107.654 19.903C108.886 19.0173 110.197 18.3274 111.587 17.8369Z" fill="#43C9F5"/>
<path fill-rule="evenodd" clip-rule="evenodd" d="M30.0134 17.8369C30.2581 17.9052 30.4006 18.0848 30.441 18.3759C30.5037 19.5455 30.5892 20.7133 30.6975 21.8793C30.6901 22.4488 30.5762 22.9878 30.3555 23.4962C26.137 25.4132 21.9188 27.3284 17.7004 29.2454C17.4062 29.8005 17.5203 30.2192 18.0424 30.503C22.2037 32.12 26.3652 33.7369 30.5265 35.3539C30.7348 37.1702 30.7348 38.9974 30.5265 40.8335C24.3677 37.9967 18.2112 35.1221 12.0569 32.2098C11.7631 30.7258 11.6776 29.2274 11.8004 27.7183C11.9428 27.4488 12.1424 27.2386 12.3989 27.0895C18.2808 23.9993 24.1522 20.9163 30.0134 17.8369Z" fill="#07374D"/>
<path fill-rule="evenodd" clip-rule="evenodd" d="M163.062 22.8674C163.062 21.3098 163.062 19.7539 163.062 18.1963C159.527 18.1963 155.994 18.1963 152.459 18.1963C152.459 18.4352 152.459 18.676 152.459 18.9149C152.296 18.6598 152.24 18.3598 152.288 18.0166C155.936 18.0166 159.585 18.0166 163.233 18.0166C163.289 19.6659 163.231 21.2828 163.062 22.8674Z" fill="#AAE6FA"/>
<path fill-rule="evenodd" clip-rule="evenodd" d="M198.463 17.6577C196.581 17.6577 194.7 17.6577 192.819 17.6577C192.819 23.0475 192.819 28.4373 192.819 33.8272C192.648 28.4086 192.592 22.9577 192.648 17.478C194.616 17.4187 196.556 17.4798 198.463 17.6577Z" fill="#7CD9F8"/>
<path fill-rule="evenodd" clip-rule="evenodd" d="M163.062 22.8675C159.527 22.8675 155.994 22.8675 152.459 22.8675C152.459 21.5506 152.459 20.2318 152.459 18.9149C152.459 18.676 152.459 18.4352 152.459 18.1963C155.994 18.1963 159.527 18.1963 163.062 18.1963C163.062 19.754 163.062 21.3098 163.062 22.8675Z" fill="#40C9F5"/>
<path fill-rule="evenodd" clip-rule="evenodd" d="M130.057 18.197C133.876 18.1665 137.696 18.197 141.515 18.2869C145.963 18.8276 148.784 21.3734 149.98 25.9225C150.715 29.5875 150.488 33.1808 149.296 36.7021C147.504 40.236 144.682 42.0614 140.831 42.1818C137.24 42.2716 133.648 42.3021 130.057 42.2716C130.057 34.2461 130.057 26.2225 130.057 18.197Z" fill="#42C9F5"/>
<path fill-rule="evenodd" clip-rule="evenodd" d="M48.8251 18.5557C55.1637 21.2057 61.4343 24.0497 67.6367 27.0896C67.7437 27.2243 67.8292 27.3734 67.8932 27.5387C68.0073 28.976 68.0073 30.4133 67.8932 31.8506C61.9086 35.0989 55.8947 38.3327 49.8512 41.5523C49.5753 40.0719 49.4043 38.5753 49.3381 37.0607C49.3019 36.6098 49.4159 36.2199 49.6802 35.893C53.7077 34.046 57.7551 32.2494 61.8222 30.5031C62.5334 29.9282 62.4763 29.4485 61.6512 29.0658C57.4415 27.5423 53.28 25.8948 49.1671 24.1252C49.0336 23.9042 48.9481 23.6652 48.9106 23.4065C48.8251 21.7914 48.7967 20.1744 48.8251 18.5557Z" fill="#07374D"/>
<path fill-rule="evenodd" clip-rule="evenodd" d="M221.892 22.3289C223.831 22.2983 225.769 22.3289 227.706 22.4187C229.478 22.999 229.963 24.1668 229.16 25.9221C228.826 26.3515 228.399 26.621 227.877 26.7306C225.883 26.8204 223.887 26.8509 221.892 26.8204C221.892 25.3238 221.892 23.8254 221.892 22.3289Z" fill="#FCFCFC"/>
<path fill-rule="evenodd" clip-rule="evenodd" d="M139.804 23.4067C138.55 23.4067 137.296 23.4067 136.042 23.4067C136.042 28.0186 136.042 32.6287 136.042 37.2406C135.871 32.5999 135.814 27.9288 135.871 23.227C137.214 23.1677 138.525 23.2288 139.804 23.4067Z" fill="#85DAF8"/>
<path fill-rule="evenodd" clip-rule="evenodd" d="M139.804 23.4072C141.902 23.4845 143.298 24.5624 143.994 26.6411C144.559 28.9749 144.559 31.3105 143.994 33.6479C143.408 35.8595 142.011 37.0273 139.804 37.1513C138.551 37.2411 137.297 37.2717 136.042 37.2411C136.042 32.6292 136.042 28.0191 136.042 23.4072C137.296 23.4072 138.55 23.4072 139.804 23.4072Z" fill="#FCFCFC"/>
<path fill-rule="evenodd" clip-rule="evenodd" d="M182.558 17.4775C182.558 20.3521 182.558 23.2267 182.558 26.1013C179.878 26.1013 177.2 26.1013 174.521 26.1013C174.521 26.042 174.521 25.9809 174.521 25.9216C177.142 25.9216 179.766 25.9216 182.387 25.9216C182.331 23.0758 182.387 20.2605 182.558 17.4775Z" fill="#BBE8FB"/>
<path fill-rule="evenodd" clip-rule="evenodd" d="M2.48014 26.1016C3.33521 26.1016 4.19029 26.1016 5.04536 26.1016C5.04536 26.8795 5.04536 27.6592 5.04536 28.4372C5.84348 28.4372 6.64144 28.4372 7.43956 28.4372C7.43956 29.2762 7.43956 30.1134 7.43956 30.9524C6.64144 30.9524 5.84348 30.9524 5.04536 30.9524C5.04536 31.7303 5.04536 32.5101 5.04536 33.288C4.18909 33.3329 3.33402 33.3922 2.48014 33.4677C2.48014 32.6897 2.48014 31.91 2.48014 31.1321C1.68202 31.1321 0.884062 31.1321 0.0859375 31.1321C0.0859375 30.2338 0.0859375 29.3355 0.0859375 28.4372C0.884062 28.4372 1.68202 28.4372 2.48014 28.4372C2.48014 27.6592 2.48014 26.8795 2.48014 26.1016Z" fill="#333A3A"/>
<path fill-rule="evenodd" clip-rule="evenodd" d="M152.459 27C155.708 27 158.958 27 162.207 27C162.207 28.5577 162.207 30.1135 162.207 31.6712C158.958 31.6712 155.708 31.6712 152.459 31.6712C152.459 30.1135 152.459 28.5577 152.459 27Z" fill="#42C9F5"/>
<path fill-rule="evenodd" clip-rule="evenodd" d="M74.6475 28.6172C77.7795 28.8525 78.7201 30.4695 77.4693 33.468C76.143 34.7814 74.7464 34.8712 73.2794 33.7375C71.8198 31.4486 72.2759 29.7419 74.6475 28.6172Z" fill="#A2BFFE"/>
<path fill-rule="evenodd" clip-rule="evenodd" d="M4.36054 28.6172C4.4717 28.6711 4.58576 28.7322 4.70256 28.7968C4.8717 29.4454 4.92882 30.103 4.87358 30.7731C4.13257 30.7731 3.3914 30.7731 2.65039 30.7731C2.65039 30.1138 2.65039 29.4562 2.65039 28.7968C3.25612 28.8525 3.82612 28.7933 4.36054 28.6172Z" fill="#F7F8F9"/>
<path fill-rule="evenodd" clip-rule="evenodd" d="M74.9897 30.5928C75.8983 30.6179 76.2687 31.0976 76.1013 32.0301C75.2871 32.8026 74.6886 32.6535 74.3057 31.5809C74.3742 31.121 74.6022 30.7922 74.9897 30.5928Z" fill="#F9FCFD"/>
<path fill-rule="evenodd" clip-rule="evenodd" d="M174.521 31.4919C177.17 31.3122 179.849 31.253 182.558 31.3122C182.558 34.7258 182.558 38.1394 182.558 41.5529C182.387 38.231 182.331 34.8767 182.387 31.4919C179.766 31.4919 177.142 31.4919 174.521 31.4919Z" fill="#95E0F9"/>
<path fill-rule="evenodd" clip-rule="evenodd" d="M221.892 31.4917C224.125 31.4162 226.348 31.506 228.561 31.7611C229.606 32.1887 230.119 32.9972 230.1 34.1866C230.058 35.5089 229.43 36.3174 228.219 36.612C226.111 36.7018 224.002 36.7324 221.892 36.7018C221.892 34.9645 221.892 33.229 221.892 31.4917Z" fill="#FCFCFC"/>
<path fill-rule="evenodd" clip-rule="evenodd" d="M152.459 36.7019C156.134 36.5222 159.84 36.4629 163.575 36.5222C163.631 38.1715 163.573 39.7884 163.404 41.3731C163.404 39.8154 163.404 38.2595 163.404 36.7019C159.756 36.7019 156.107 36.7019 152.459 36.7019Z" fill="#9EE3FA"/>
<path fill-rule="evenodd" clip-rule="evenodd" d="M152.459 36.7021C156.107 36.7021 159.756 36.7021 163.404 36.7021C163.404 38.2598 163.404 39.8157 163.404 41.3733C159.756 41.3733 156.107 41.3733 152.459 41.3733C152.459 39.8157 152.459 38.2598 152.459 36.7021Z" fill="#40C9F5"/>
<path fill-rule="evenodd" clip-rule="evenodd" d="M28.1319 47.6612C30.5771 47.3863 31.8028 48.5253 31.8087 51.0747C31.2006 52.9073 29.9751 53.6565 28.1319 53.3205C26.4562 52.5839 25.8576 51.2975 26.3363 49.4578C26.6922 48.5739 27.2907 47.9756 28.1319 47.6612Z" fill="#65502D"/>
<path fill-rule="evenodd" clip-rule="evenodd" d="M53.7838 47.6606C55.1309 47.6085 56.4705 47.6696 57.8027 47.8403C58.3294 48.3775 58.358 48.947 57.8882 49.5471C56.5066 49.7087 55.1384 49.6495 53.7838 49.3674C53.3416 48.7997 53.3416 48.2301 53.7838 47.6606Z" fill="#4866C4"/>
<path fill-rule="evenodd" clip-rule="evenodd" d="M28.4743 49.6372C29.3893 49.436 29.8737 49.7953 29.9279 50.7151C29.492 51.511 28.922 51.6296 28.2178 51.0745C27.9264 50.5409 28.0119 50.0612 28.4743 49.6372Z" fill="#F7F7F7"/>
<path fill-rule="evenodd" clip-rule="evenodd" d="M48.4821 49.8174C51.4958 49.8246 54.4601 49.9144 57.3749 50.0869C58.3194 50.9259 58.2625 51.6445 57.2039 52.2428C54.1821 52.3776 51.2179 52.2572 48.3111 51.8835C47.7141 51.5565 47.5147 51.0481 47.7126 50.3564C47.9535 50.1264 48.2101 49.9467 48.4821 49.8174Z" fill="#4A69CA"/>
</g>
<defs>
<clipPath id="clip0_827_6205">
<rect width="236" height="53" fill="white" transform="translate(0 0.5)"/>
</clipPath>
</defs>
</svg>
