<svg width="273" height="58" viewBox="0 0 273 58" fill="none" xmlns="http://www.w3.org/2000/svg">
<g clip-path="url(#clip0_87_2222)">
<path fill-rule="evenodd" clip-rule="evenodd" d="M58.8533 0.098306C59.4679 0.069011 60.0614 0.167316 60.6337 0.393221C62.0497 1.06406 63.4345 1.78483 64.788 2.55593C65.6674 3.16739 65.9641 3.98667 65.6783 5.01356C63.9235 6.59549 61.9124 7.70948 59.6446 8.35593C58.2768 8.26451 57.7822 7.54354 58.1609 6.19322C58.8594 5.36883 59.6837 4.6807 60.6337 4.12881C59.6402 3.78534 58.8161 3.22834 58.1609 2.45763C57.7547 1.49345 57.9856 0.707011 58.8533 0.098306Z" fill="#E7E6E6"/>
<path fill-rule="evenodd" clip-rule="evenodd" d="M24.6293 2.45765C25.5016 2.28424 26.1939 2.54652 26.7065 3.24409C26.9825 4.23108 27.2792 5.21413 27.5967 6.19324C28.7237 5.64077 29.9107 5.47699 31.1576 5.70172C32.2969 6.46693 32.4288 7.38451 31.5532 8.45426C30.4644 8.84827 29.3435 9.14318 28.1902 9.33901C28.7963 10.5515 28.8953 11.7966 28.4869 13.0746C26.9388 13.9122 25.8838 13.5189 25.3217 11.8949C25.2323 11.231 25.1006 10.5755 24.9261 9.92884C23.7755 10.5177 22.5557 10.7471 21.2663 10.617C19.9652 9.55253 19.9652 8.504 21.2663 7.47121C22.3134 7.23351 23.3684 7.0369 24.4315 6.88138C23.5836 5.57707 23.4847 4.23363 24.1348 2.85087C24.3316 2.73959 24.4964 2.60845 24.6293 2.45765Z" fill="#4479FC"/>
<path fill-rule="evenodd" clip-rule="evenodd" d="M26.2119 7.56952C26.4098 7.56952 26.6076 7.56952 26.8054 7.56952C26.8054 7.8316 26.8054 8.09388 26.8054 8.35596C26.4569 8.32784 26.1271 8.39351 25.8163 8.55257C25.6325 8.3188 25.5666 8.05672 25.6185 7.76613C25.8739 7.81273 26.0717 7.74725 26.2119 7.56952Z" fill="#E0ECFD"/>
<path fill-rule="evenodd" clip-rule="evenodd" d="M46.9837 14.4509C49.759 14.4882 50.9129 15.8645 50.4456 18.5797C49.3895 28.0288 47.8727 37.3992 45.8956 46.6949C45.6288 47.8864 45.1342 48.9677 44.412 49.939C41.6998 51.0479 40.3809 50.1297 40.4554 47.1865C41.6699 37.3599 43.0877 27.5628 44.7087 17.7932C44.8848 16.2577 45.643 15.1429 46.9837 14.4509Z" fill="#51CCF5"/>
<path fill-rule="evenodd" clip-rule="evenodd" d="M47.1815 15.6305C48.5825 15.4535 49.3079 16.0434 49.3576 17.4C48.4057 27.256 46.8561 37.0217 44.7087 46.6949C44.4802 47.5757 44.1176 48.3936 43.6206 49.1525C42.0345 49.6086 41.3749 49.0188 41.6424 47.383C42.6669 38.8796 43.8208 30.392 45.1043 21.922C45.3328 20.2626 45.6626 18.6229 46.0935 17.0068C46.2848 16.3933 46.6474 15.9352 47.1815 15.6305Z" fill="#00203F"/>
<path fill-rule="evenodd" clip-rule="evenodd" d="M34.7185 17.7932C35.4032 17.7244 35.8977 17.9859 36.2022 18.5797C36.5053 20.9311 36.5711 23.2904 36.4 25.6576C35.9547 26.0273 35.4601 26.3222 34.9163 26.5424C30.6011 28.3276 26.3148 30.162 22.0576 32.0475C26.7461 33.8189 31.428 35.5884 36.1033 37.3559C36.2932 37.6351 36.458 37.93 36.5978 38.2407C36.746 40.4093 36.6799 42.572 36.4 44.7288C36.326 44.9097 36.2271 45.0729 36.1033 45.2203C35.4251 45.358 34.7656 45.2931 34.125 45.0237C27.1154 41.8072 20.0926 38.628 13.0565 35.4881C12.9736 35.2581 12.8419 35.0615 12.6609 34.8983C12.5289 32.9971 12.5289 31.0978 12.6609 29.1966C12.9576 28.77 13.3202 28.4102 13.7489 28.1153C20.7326 24.6117 27.7224 21.171 34.7185 17.7932Z" fill="#4DCBF5"/>
<path fill-rule="evenodd" clip-rule="evenodd" d="M55.8859 18.5797C56.9353 18.5443 57.9245 18.7743 58.8533 19.2678C65.6324 22.1776 72.3585 25.1936 79.0315 28.3119C79.4478 28.7129 79.6786 29.2045 79.7239 29.7864C79.9099 31.5107 79.844 33.2153 79.5261 34.8983C79.2952 35.1283 79.0646 35.3564 78.8337 35.5864C71.7887 38.9563 64.7989 42.4304 57.8641 46.0068C57.023 46.284 56.5284 45.9891 56.3804 45.122C56.2746 43.9404 56.1428 42.7607 55.9848 41.583C55.8075 40.5115 55.8734 39.4636 56.1826 38.4373C56.566 37.9241 57.0606 37.5643 57.6663 37.3559C61.8855 35.7398 66.0399 33.9703 70.1293 32.0474C65.4165 30.3546 60.7348 28.5851 56.0837 26.739C55.635 26.4323 55.4044 26.0076 55.3913 25.461C55.2594 23.6266 55.2594 21.7903 55.3913 19.9559C55.4663 19.4585 55.6313 19.0004 55.8859 18.5797Z" fill="#4ECBF5"/>
<path fill-rule="evenodd" clip-rule="evenodd" d="M102.968 18.7763C106.769 18.2395 110.264 18.9945 113.453 21.0373C115.673 22.9267 116.86 25.3194 117.014 28.2135C114.904 28.2135 112.794 28.2135 110.684 28.2135C110.253 26.0489 108.934 24.7709 106.727 24.3796C103.278 24.0474 101.003 25.522 99.9022 28.8034C98.9906 32.2106 99.3204 35.4881 100.891 38.6339C103.147 41.0207 105.752 41.4474 108.705 39.9119C109.744 39.0605 110.403 37.9792 110.684 36.6678C112.79 36.4712 114.9 36.4063 117.014 36.4712C116.287 41.7482 113.32 44.9923 108.112 46.2034C101.47 47.3437 96.6236 44.951 93.5717 39.0271C92.5557 35.96 92.2259 32.8142 92.5826 29.5898C93.6673 23.6954 97.1292 20.0916 102.968 18.7763Z" fill="#43C9F5"/>
<path fill-rule="evenodd" clip-rule="evenodd" d="M134.621 18.7762C141.206 19.5863 145.063 23.255 146.193 29.7864C146.871 34.2278 145.948 38.2918 143.424 41.9762C141.106 44.6521 138.172 46.0933 134.621 46.3017C134.621 44.4004 134.621 42.5012 134.621 40.6C137.246 39.9177 138.729 38.2131 139.072 35.4881C139.651 32.6491 139.387 29.8965 138.28 27.2305C137.451 25.9152 136.297 24.997 134.818 24.4779C134.621 22.5826 134.555 20.6814 134.621 18.7762Z" fill="#43C9F5"/>
<path fill-rule="evenodd" clip-rule="evenodd" d="M201.882 27.8203C201.882 27.8852 201.882 27.9521 201.882 28.0169C201.684 24.9714 201.618 21.8906 201.684 18.7763C199.508 18.7763 197.332 18.7763 195.155 18.7763C195.155 27.492 195.155 36.2097 195.155 44.9254C194.958 36.1763 194.892 27.3957 194.958 18.5797C197.266 18.5797 199.573 18.5797 201.882 18.5797C201.882 21.6605 201.882 24.7394 201.882 27.8203Z" fill="#72D6F7"/>
<path fill-rule="evenodd" clip-rule="evenodd" d="M211.179 18.5797C213.421 18.5797 215.664 18.5797 217.905 18.5797C217.905 27.3622 217.905 36.1428 217.905 44.9254C215.664 44.9254 213.421 44.9254 211.179 44.9254C211.179 41.1898 211.179 37.4542 211.179 33.7186C208.046 33.6538 204.946 33.7186 201.882 33.9152C201.882 37.586 201.882 41.2547 201.882 44.9254C199.64 44.9254 197.397 44.9254 195.155 44.9254C195.155 36.2097 195.155 27.492 195.155 18.7763C197.332 18.7763 199.508 18.7763 201.684 18.7763C201.618 21.8906 201.684 24.9714 201.882 28.0169C204.981 28.0169 208.079 28.0169 211.179 28.0169C211.179 24.8712 211.179 21.7254 211.179 18.5797Z" fill="#41C9F5"/>
<path fill-rule="evenodd" clip-rule="evenodd" d="M229.577 18.7762C229.544 24.6746 229.577 30.5729 229.676 36.4712C229.933 38.9288 231.318 40.1084 233.83 40.0101C236.454 40.2205 237.971 39.0409 238.38 36.4712C238.479 30.5729 238.513 24.6746 238.479 18.7762C240.655 18.7762 242.832 18.7762 245.008 18.7762C245.008 24.7394 245.008 30.7046 245.008 36.6678C244.743 40.832 242.632 43.616 238.677 45.0237C234.335 46.3489 230.248 45.8259 226.412 43.4508C224.212 41.644 223.09 39.3181 223.049 36.4712C223.049 30.5729 223.049 24.6746 223.049 18.7762C225.225 18.7762 227.401 18.7762 229.577 18.7762Z" fill="#41C9F5"/>
<path fill-rule="evenodd" clip-rule="evenodd" d="M238.479 18.7763C240.685 18.5817 242.928 18.5148 245.205 18.5797C245.271 24.6431 245.205 30.6712 245.008 36.6678C245.008 30.7046 245.008 24.7395 245.008 18.7763C242.832 18.7763 240.655 18.7763 238.479 18.7763Z" fill="#70D6F7"/>
<path fill-rule="evenodd" clip-rule="evenodd" d="M264.988 18.7763C260.108 18.7763 255.229 18.7763 250.349 18.7763C250.349 27.492 250.349 36.2097 250.349 44.9254C250.151 36.1763 250.086 27.3957 250.151 18.5797C255.13 18.5148 260.076 18.5797 264.988 18.7763Z" fill="#6ED5F7"/>
<path fill-rule="evenodd" clip-rule="evenodd" d="M264.988 18.7762C270.533 19.1183 272.808 22.0007 271.813 27.4271C271.16 29.0924 270.005 30.272 268.351 30.9661C272.139 32.3856 273.556 35.0733 272.604 39.0271C271.576 42.1473 269.431 44.0151 266.175 44.6305C260.907 44.9136 255.631 45.0119 250.349 44.9254C250.349 36.2097 250.349 27.492 250.349 18.7762C255.229 18.7762 260.108 18.7762 264.988 18.7762Z" fill="#42C9F5"/>
<path fill-rule="evenodd" clip-rule="evenodd" d="M129.082 18.9729C129.543 18.9729 130.005 18.9729 130.466 18.9729C130.499 20.8741 130.466 22.7753 130.367 24.6746C127.559 26.4834 126.339 29.0708 126.708 32.4407C126.558 34.6683 127.053 36.7327 128.191 38.6339C128.802 39.3732 129.527 39.963 130.367 40.4034C130.466 42.3675 130.499 44.3336 130.466 46.3017C124.253 45.1044 120.725 41.3688 119.883 35.0949C118.958 29.6193 120.508 24.999 124.532 21.2339C125.956 20.2646 127.473 19.5096 129.082 18.9729Z" fill="#43C9F5"/>
<path fill-rule="evenodd" clip-rule="evenodd" d="M34.7185 18.9729C35.0016 19.0476 35.1663 19.2442 35.213 19.5627C35.2856 20.8427 35.3845 22.1206 35.5098 23.3966C35.5013 24.0199 35.3695 24.6097 35.1141 25.1661C30.2343 27.264 25.3548 29.3598 20.475 31.4576C20.1347 32.0652 20.2667 32.5233 20.8706 32.8339C25.6843 34.6034 30.4982 36.3729 35.3119 38.1424C35.5529 40.1301 35.5529 42.1296 35.3119 44.139C28.1876 41.0345 21.0659 37.8888 13.9467 34.7017C13.6069 33.0777 13.5079 31.438 13.65 29.7865C13.8148 29.4915 14.0456 29.2615 14.3424 29.0983C21.1464 25.7166 27.9384 22.3428 34.7185 18.9729Z" fill="#00203F"/>
<path fill-rule="evenodd" clip-rule="evenodd" d="M188.627 24.478C188.627 22.7734 188.627 21.0707 188.627 19.3661C184.538 19.3661 180.451 19.3661 176.362 19.3661C176.362 19.6276 176.362 19.8911 176.362 20.1525C176.174 19.8734 176.109 19.545 176.164 19.1695C180.384 19.1695 184.605 19.1695 188.825 19.1695C188.89 20.9744 188.823 22.7439 188.627 24.478Z" fill="#AAE6FA"/>
<path fill-rule="evenodd" clip-rule="evenodd" d="M229.577 18.7763C227.401 18.7763 225.225 18.7763 223.049 18.7763C223.049 24.6746 223.049 30.5729 223.049 36.4712C222.851 30.5415 222.786 24.5763 222.851 18.5797C225.128 18.5148 227.371 18.5817 229.577 18.7763Z" fill="#7CD9F8"/>
<path fill-rule="evenodd" clip-rule="evenodd" d="M188.627 24.478C184.538 24.478 180.451 24.478 176.362 24.478C176.362 23.0368 176.362 21.5937 176.362 20.1525C176.362 19.891 176.362 19.6276 176.362 19.3661C180.451 19.3661 184.538 19.3661 188.627 19.3661C188.627 21.0707 188.627 22.7733 188.627 24.478Z" fill="#40C9F5"/>
<path fill-rule="evenodd" clip-rule="evenodd" d="M150.447 19.3661C154.865 19.3327 159.283 19.3661 163.701 19.4644C168.847 20.0562 172.111 22.8421 173.493 27.8203C174.344 31.8312 174.081 35.7634 172.702 39.6169C170.63 43.4842 167.366 45.4818 162.91 45.6135C158.756 45.7118 154.602 45.7453 150.447 45.7118C150.447 36.9293 150.447 28.1487 150.447 19.3661Z" fill="#42C9F5"/>
<path fill-rule="evenodd" clip-rule="evenodd" d="M56.4793 19.7593C63.8118 22.6593 71.0655 25.7717 78.2402 29.0983C78.3641 29.2458 78.463 29.409 78.537 29.5898C78.6689 31.1627 78.6689 32.7356 78.537 34.3085C71.614 37.8632 64.6573 41.4022 57.6663 44.9254C57.3472 43.3054 57.1494 41.6676 57.0728 40.0102C57.0309 39.5167 57.1628 39.09 57.4685 38.7322C62.1275 36.7111 66.8094 34.745 71.5141 32.8339C72.3369 32.2048 72.2708 31.6798 71.3163 31.261C66.4466 29.5938 61.6327 27.7909 56.875 25.8543C56.7205 25.6124 56.6216 25.3509 56.5783 25.0678C56.4793 23.3003 56.4465 21.5308 56.4793 19.7593Z" fill="#00203F"/>
<path fill-rule="evenodd" clip-rule="evenodd" d="M256.679 23.8881C258.923 23.8547 261.164 23.8881 263.405 23.9864C265.455 24.6215 266.017 25.8994 265.087 27.8203C264.701 28.2902 264.207 28.5851 263.603 28.7051C261.297 28.8034 258.988 28.8368 256.679 28.8034C256.679 27.1656 256.679 25.5259 256.679 23.8881Z" fill="#00203F"/>
<path fill-rule="evenodd" clip-rule="evenodd" d="M161.723 25.0678C160.272 25.0678 158.821 25.0678 157.371 25.0678C157.371 30.1148 157.371 35.1598 157.371 40.2068C157.173 35.1283 157.107 30.0165 157.173 24.8712C158.726 24.8063 160.243 24.8732 161.723 25.0678Z" fill="#85DAF8"/>
<path fill-rule="evenodd" clip-rule="evenodd" d="M161.723 25.0678C164.149 25.1524 165.765 26.332 166.57 28.6068C167.223 31.1608 167.223 33.7167 166.57 36.2746C165.892 38.6949 164.276 39.9728 161.723 40.1085C160.274 40.2068 158.823 40.2402 157.371 40.2068C157.371 35.1598 157.371 30.1148 157.371 25.0678C158.821 25.0678 160.272 25.0678 161.723 25.0678Z" fill="#00203F"/>
<path fill-rule="evenodd" clip-rule="evenodd" d="M211.179 18.5797C211.179 21.7254 211.179 24.8712 211.179 28.0169C208.079 28.0169 204.981 28.0169 201.882 28.0169C201.882 27.9521 201.882 27.8852 201.882 27.8203C204.914 27.8203 207.949 27.8203 210.982 27.8203C210.916 24.706 210.982 21.6251 211.179 18.5797Z" fill="#BBE8FB"/>
<path fill-rule="evenodd" clip-rule="evenodd" d="M2.86847 28.017C3.8576 28.017 4.84673 28.017 5.83586 28.017C5.83586 28.8683 5.83586 29.7216 5.83586 30.5729C6.75912 30.5729 7.68218 30.5729 8.60543 30.5729C8.60543 31.4911 8.60543 32.4073 8.60543 33.3254C7.68218 33.3254 6.75912 33.3254 5.83586 33.3254C5.83586 34.1768 5.83586 35.0301 5.83586 35.8814C4.84535 35.9305 3.85622 35.9954 2.86847 36.078C2.86847 35.2267 2.86847 34.3734 2.86847 33.5221C1.94522 33.5221 1.02216 33.5221 0.0989075 33.5221C0.0989075 32.539 0.0989075 31.556 0.0989075 30.5729C1.02216 30.5729 1.94522 30.5729 2.86847 30.5729C2.86847 29.7216 2.86847 28.8683 2.86847 28.017Z" fill="#333A3A"/>
<path fill-rule="evenodd" clip-rule="evenodd" d="M176.362 29C180.121 29 183.879 29 187.638 29C187.638 30.7046 187.638 32.4073 187.638 34.1119C183.879 34.1119 180.121 34.1119 176.362 34.1119C176.362 32.4073 176.362 30.7046 176.362 29Z" fill="#42C9F5"/>
<path fill-rule="evenodd" clip-rule="evenodd" d="M86.3511 30.7695C89.9741 31.027 91.0621 32.7965 89.6152 36.0779C88.0811 37.5152 86.4654 37.6135 84.7685 36.3729C83.08 33.868 83.6076 32.0002 86.3511 30.7695Z" fill="#A2BFFE"/>
<path fill-rule="evenodd" clip-rule="evenodd" d="M5.04458 30.7695C5.17316 30.8285 5.30511 30.8953 5.44023 30.9661C5.63588 31.6758 5.70195 32.3954 5.63805 33.1288C4.78087 33.1288 3.9235 33.1288 3.06631 33.1288C3.06631 32.4072 3.06631 31.6876 3.06631 30.9661C3.76701 31.027 4.42637 30.9621 5.04458 30.7695Z" fill="#F7F8F9"/>
<path fill-rule="evenodd" clip-rule="evenodd" d="M86.7467 32.9322C87.7978 32.9597 88.2263 33.4847 88.0326 34.5051C87.0908 35.3505 86.3984 35.1873 85.9554 34.0135C86.0348 33.5102 86.2985 33.1504 86.7467 32.9322Z" fill="#F9FCFD"/>
<path fill-rule="evenodd" clip-rule="evenodd" d="M201.882 33.9152C204.946 33.7186 208.046 33.6538 211.179 33.7186C211.179 37.4542 211.179 41.1898 211.179 44.9254C210.982 41.2901 210.916 37.6194 210.982 33.9152C207.949 33.9152 204.914 33.9152 201.882 33.9152Z" fill="#95E0F9"/>
<path fill-rule="evenodd" clip-rule="evenodd" d="M256.679 33.9152C259.263 33.8327 261.835 33.931 264.395 34.2102C265.603 34.6781 266.197 35.5628 266.175 36.8644C266.126 38.3114 265.4 39.1962 263.999 39.5186C261.56 39.6169 259.121 39.6504 256.679 39.6169C256.679 37.7157 256.679 35.8165 256.679 33.9152Z" fill="#00203F"/>
<path fill-rule="evenodd" clip-rule="evenodd" d="M176.362 39.617C180.613 39.4204 184.9 39.3555 189.221 39.4204C189.286 41.2252 189.219 42.9947 189.023 44.7288C189.023 43.0242 189.023 41.3216 189.023 39.617C184.803 39.617 180.582 39.617 176.362 39.617Z" fill="#9EE3FA"/>
<path fill-rule="evenodd" clip-rule="evenodd" d="M176.362 39.6169C180.582 39.6169 184.803 39.6169 189.023 39.6169C189.023 41.3216 189.023 43.0242 189.023 44.7288C184.803 44.7288 180.582 44.7288 176.362 44.7288C176.362 43.0242 176.362 41.3216 176.362 39.6169Z" fill="#40C9F5"/>
<path fill-rule="evenodd" clip-rule="evenodd" d="M32.5424 51.6101C35.3709 51.3093 36.7887 52.5558 36.7957 55.3457C36.0922 57.3512 34.6746 58.171 32.5424 57.8034C30.6039 56.9973 29.9115 55.5895 30.4652 53.5763C30.8769 52.6089 31.5693 51.9542 32.5424 51.6101Z" fill="#65502D"/>
<path fill-rule="evenodd" clip-rule="evenodd" d="M62.2163 51.6102C63.7746 51.5532 65.3241 51.62 66.8652 51.8068C67.4745 52.3947 67.5075 53.0179 66.9641 53.6746C65.3659 53.8515 63.7833 53.7867 62.2163 53.478C61.7047 52.8567 61.7047 52.2334 62.2163 51.6102Z" fill="#4866C4"/>
<path fill-rule="evenodd" clip-rule="evenodd" d="M32.938 53.7729C33.9964 53.5527 34.5568 53.9459 34.6196 54.9526C34.1153 55.8236 33.4559 55.9533 32.6413 55.3458C32.3042 54.7619 32.4031 54.2369 32.938 53.7729Z" fill="#F7F7F7"/>
<path fill-rule="evenodd" clip-rule="evenodd" d="M56.0837 53.9695C59.5698 53.9773 62.9989 54.0757 66.3707 54.2644C67.4632 55.1826 67.3974 55.969 66.1728 56.6237C62.6772 56.7712 59.2483 56.6394 55.8859 56.2305C55.1953 55.8727 54.9646 55.3163 55.1935 54.5593C55.4722 54.3077 55.769 54.111 56.0837 53.9695Z" fill="#4A69CA"/>
</g>
<defs>
<clipPath id="clip0_87_2222">
<rect width="273" height="58" fill="white"/>
</clipPath>
</defs>
</svg>
