<svg width="24" height="24" viewBox="0 0 24 24" fill="none" xmlns="http://www.w3.org/2000/svg">
<path fill-rule="evenodd" clip-rule="evenodd" d="M-8.99902 0.00195312H32.9994V23.9983H-8.99902V0.00195312Z" fill="#EBEBEB"/>
<path fill-rule="evenodd" clip-rule="evenodd" d="M-8.99902 16.1172H32.9994V24.0031H-8.99902V16.1172Z" fill="#DA0000"/>
<path fill-rule="evenodd" clip-rule="evenodd" d="M-1.0166 16.4509H1.28627V16.6106H-1.0166V16.4509ZM-0.673105 17.2444H-0.513453V17.3992H-0.677944L-0.673105 17.2444ZM1.29111 17.2395V17.3992H0.831502V17.2395H1.29111ZM1.53785 16.4509H1.6975V17.3992H1.53785V16.4509Z" fill="#EBEBEB"/>
<path fill-rule="evenodd" clip-rule="evenodd" d="M2.45177 17.2395V17.3992H1.58094V17.2395H2.45177ZM0.831055 16.8718H0.990708V17.3992H0.831055V16.8718Z" fill="#EBEBEB"/>
<path fill-rule="evenodd" clip-rule="evenodd" d="M2.3216 16.4509H2.48125V17.3992H2.32644L2.3216 16.4509ZM1.92972 16.4509H2.08454V17.3992H1.93456L1.92972 16.4509ZM-0.169957 16.8283V16.9879H-1.0166V16.8283H-0.169957ZM1.66847 16.8283V16.9879H0.831503V16.8283H1.66847Z" fill="#EBEBEB"/>
<path fill-rule="evenodd" clip-rule="evenodd" d="M0.831055 16.8669H0.990708V17.3991H0.831055V16.8669Z" fill="#EBEBEB"/>
<path fill-rule="evenodd" clip-rule="evenodd" d="M0.831055 16.8669H0.990708V17.3991H0.831055V16.8669Z" fill="#EBEBEB"/>
<path fill-rule="evenodd" clip-rule="evenodd" d="M0.831502 16.8669H0.991155V17.3991H0.831502V16.8669ZM-1.00693 16.8669H-0.852111V17.3991H-1.0166L-1.00693 16.8669ZM0.33803 16.8669H0.497683V17.3991H0.33803V16.8669ZM-0.32961 16.8669H-0.169957V17.3991H-0.32961V16.8669Z" fill="#EBEBEB"/>
<path fill-rule="evenodd" clip-rule="evenodd" d="M0.449462 17.2396V17.3993H-0.261719V17.2396H0.449462ZM0.497842 16.8284V16.988H0.0479109V16.8284H0.497842Z" fill="#EBEBEB"/>
<path fill-rule="evenodd" clip-rule="evenodd" d="M2.7334 16.4509H5.03143V16.6106H2.7334V16.4509ZM3.07206 17.2444H3.23171V17.3992H3.07689L3.07206 17.2444ZM5.03627 17.2395V17.3992H4.57666V17.2395H5.03627ZM5.28301 16.4509H5.44266V17.3992H5.28301V16.4509Z" fill="#EBEBEB"/>
<path fill-rule="evenodd" clip-rule="evenodd" d="M6.20271 17.2395V17.3992H5.33187V17.2395H6.20271ZM4.57715 16.8718H4.7368V17.3992H4.57715V16.8718Z" fill="#EBEBEB"/>
<path fill-rule="evenodd" clip-rule="evenodd" d="M6.07164 16.4509H6.23129V17.3992H6.07164V16.4509ZM5.67493 16.4509H5.83458V17.3992H5.67493V16.4509ZM3.57525 16.8283V16.9879H2.73828V16.8283H3.57525ZM5.41368 16.8283V16.9879H4.57671V16.8283H5.41368Z" fill="#EBEBEB"/>
<path fill-rule="evenodd" clip-rule="evenodd" d="M4.57715 16.8669H4.7368V17.3991H4.57715V16.8669Z" fill="#EBEBEB"/>
<path fill-rule="evenodd" clip-rule="evenodd" d="M4.57715 16.8669H4.7368V17.3991H4.57715V16.8669Z" fill="#EBEBEB"/>
<path fill-rule="evenodd" clip-rule="evenodd" d="M4.57671 16.8669H4.73636V17.3991H4.57671V16.8669ZM2.73828 16.8669H2.8931V17.3991H2.73828V16.8669ZM4.08807 16.8669H4.24289V17.3991H4.08807V16.8669ZM3.4156 16.8669H3.57525V17.3991H3.4156V16.8669Z" fill="#EBEBEB"/>
<path fill-rule="evenodd" clip-rule="evenodd" d="M4.19942 17.2396V17.3993H3.4834V17.2396H4.19942ZM4.2478 16.8284V16.988H3.79303V16.8284H4.2478Z" fill="#EBEBEB"/>
<path fill-rule="evenodd" clip-rule="evenodd" d="M6.50195 16.4509H8.79999V16.6106H6.50195V16.4509ZM6.84545 17.2444H7.0051V17.3992H6.84545V17.2444ZM8.80966 17.2395V17.3992H8.35006V17.2395H8.80966ZM9.05156 16.4509H9.21122V17.3992H9.0564L9.05156 16.4509Z" fill="#EBEBEB"/>
<path fill-rule="evenodd" clip-rule="evenodd" d="M9.97033 17.2395V17.3992H9.09949V17.2395H9.97033ZM8.34961 16.8718H8.50442V17.3992H8.34961V16.8718Z" fill="#EBEBEB"/>
<path fill-rule="evenodd" clip-rule="evenodd" d="M9.8402 16.4509H9.99985V17.3992H9.8402V16.4509ZM9.44832 16.4509H9.60314V17.3992H9.44348L9.44832 16.4509ZM7.3438 16.8283V16.9879H6.50684V16.8283H7.3438ZM9.18707 16.8283V16.9879H8.3501V16.8283H9.18707Z" fill="#EBEBEB"/>
<path fill-rule="evenodd" clip-rule="evenodd" d="M8.34961 16.8669H8.50442V17.3991H8.34961V16.8669Z" fill="#EBEBEB"/>
<path fill-rule="evenodd" clip-rule="evenodd" d="M8.34961 16.8669H8.50442V17.3991H8.34961V16.8669Z" fill="#EBEBEB"/>
<path fill-rule="evenodd" clip-rule="evenodd" d="M8.3501 16.8669H8.50492V17.3991H8.3501V16.8669ZM6.50684 16.8669H6.66649V17.3991H6.50684V16.8669ZM7.85663 16.8669H8.01628V17.3991H7.85663V16.8669ZM7.18899 16.8669H7.34864V17.3991H7.18899V16.8669Z" fill="#EBEBEB"/>
<path fill-rule="evenodd" clip-rule="evenodd" d="M7.96802 17.2396V17.3993H7.25684V17.2396H7.96802ZM8.0164 16.8284V16.988H7.56647V16.8284H8.0164Z" fill="#EBEBEB"/>
<path fill-rule="evenodd" clip-rule="evenodd" d="M10.2852 16.4509H12.588V16.6106H10.2852V16.4509ZM10.6287 17.2444H10.7883V17.3992H10.6287V17.2444ZM12.5929 17.2395V17.3992H12.1333V17.2395H12.5929ZM12.8396 16.4509H12.9993V17.3992H12.8396V16.4509Z" fill="#EBEBEB"/>
<path fill-rule="evenodd" clip-rule="evenodd" d="M13.7535 17.2395V17.3992H12.8827V17.2395H13.7535ZM12.1328 16.8718H12.2925V17.3992H12.1328V16.8718Z" fill="#EBEBEB"/>
<path fill-rule="evenodd" clip-rule="evenodd" d="M13.6234 16.4509H13.7831V17.3992H13.6234V16.4509ZM13.2315 16.4509H13.3863V17.3992H13.2315V16.4509ZM11.1318 16.8283V16.9879H10.29V16.8283H11.1318ZM12.9703 16.8283V16.9879H12.1333V16.8283H12.9703Z" fill="#EBEBEB"/>
<path fill-rule="evenodd" clip-rule="evenodd" d="M12.1328 16.8669H12.2925V17.3991H12.1328V16.8669Z" fill="#EBEBEB"/>
<path fill-rule="evenodd" clip-rule="evenodd" d="M12.1328 16.8669H12.2925V17.3991H12.1328V16.8669Z" fill="#EBEBEB"/>
<path fill-rule="evenodd" clip-rule="evenodd" d="M12.1333 16.8669H12.293V17.3991H12.1333V16.8669ZM10.2949 16.8669H10.4497V17.3991H10.29L10.2949 16.8669ZM11.6398 16.8669H11.7995V17.3991H11.6398V16.8669ZM10.9722 16.8669H11.1318V17.3991H10.9722V16.8669Z" fill="#EBEBEB"/>
<path fill-rule="evenodd" clip-rule="evenodd" d="M11.7561 17.2396V17.3993H11.0449V17.2396H11.7561ZM11.7996 16.8284V16.988H11.3497V16.8284H11.7996Z" fill="#EBEBEB"/>
<path fill-rule="evenodd" clip-rule="evenodd" d="M-8.99902 0.00195312H32.9994V7.88784H-8.99902V0.00195312Z" fill="#239F40"/>
<path fill-rule="evenodd" clip-rule="evenodd" d="M14.0928 16.4509H16.3908V16.6106H14.0928V16.4509ZM14.4363 17.2444H14.5959V17.3992H14.4363V17.2444ZM16.4005 17.2395V17.3992H15.9409V17.2395H16.4005ZM16.6424 16.4509H16.8069V17.3992H16.6424V16.4509Z" fill="#EBEBEB"/>
<path fill-rule="evenodd" clip-rule="evenodd" d="M17.5611 17.2395V17.3992H16.6903V17.2395H17.5611ZM15.9404 16.8718H16.0952V17.3992H15.9404V16.8718Z" fill="#EBEBEB"/>
<path fill-rule="evenodd" clip-rule="evenodd" d="M17.431 16.4509H17.5907V17.3992H17.431V16.4509ZM17.0391 16.4509H17.194V17.3992H17.0391V16.4509ZM14.9395 16.8283V16.9879H14.0977V16.8283H14.9395ZM16.7779 16.8283V16.9879H15.9409V16.8283H16.7779Z" fill="#EBEBEB"/>
<path fill-rule="evenodd" clip-rule="evenodd" d="M15.9404 16.8669H16.0952V17.3991H15.9404V16.8669Z" fill="#EBEBEB"/>
<path fill-rule="evenodd" clip-rule="evenodd" d="M15.9404 16.8669H16.0952V17.3991H15.9404V16.8669Z" fill="#EBEBEB"/>
<path fill-rule="evenodd" clip-rule="evenodd" d="M15.9409 16.8669H16.0957V17.3991H15.9409V16.8669ZM14.0977 16.8669H14.2573V17.3991H14.0977V16.8669ZM15.4474 16.8669H15.6071V17.3991H15.4474V16.8669ZM14.7798 16.8669H14.9395V17.3991H14.7798V16.8669Z" fill="#EBEBEB"/>
<path fill-rule="evenodd" clip-rule="evenodd" d="M15.5588 17.2396V17.3993H14.8477V17.2396H15.5588ZM15.6072 16.8284V16.988H15.1573V16.8284H15.6072Z" fill="#EBEBEB"/>
<path fill-rule="evenodd" clip-rule="evenodd" d="M17.876 16.4509H20.1788V16.6106H17.876V16.4509ZM18.2195 17.2444H18.3791V17.3992H18.2195V17.2444ZM20.1837 17.2395V17.3992H19.7241V17.2395H20.1837ZM20.4304 16.4509H20.5901V17.3992H20.4304V16.4509Z" fill="#EBEBEB"/>
<path fill-rule="evenodd" clip-rule="evenodd" d="M21.3444 17.2395V17.3992H20.4735V17.2395H21.3444ZM19.7236 16.8718H19.8833V17.3992H19.7236V16.8718Z" fill="#EBEBEB"/>
<path fill-rule="evenodd" clip-rule="evenodd" d="M21.2191 16.4509H21.3739V17.3992H21.2191V16.4509ZM20.8223 16.4509H20.982V17.3992H20.8223V16.4509ZM18.7227 16.8283V16.9879H17.8809V16.8283H18.7227ZM20.5611 16.8283V16.9879H19.7241V16.8283H20.5611Z" fill="#EBEBEB"/>
<path fill-rule="evenodd" clip-rule="evenodd" d="M19.7236 16.8669H19.8833V17.3991H19.7236V16.8669Z" fill="#EBEBEB"/>
<path fill-rule="evenodd" clip-rule="evenodd" d="M19.7236 16.8669H19.8833V17.3991H19.7236V16.8669Z" fill="#EBEBEB"/>
<path fill-rule="evenodd" clip-rule="evenodd" d="M19.7241 16.8669H19.8838V17.3991H19.7241V16.8669ZM17.8857 16.8669H18.0405V17.3991H17.8809L17.8857 16.8669ZM19.2307 16.8669H19.3903V17.3991H19.2307V16.8669ZM18.563 16.8669H18.7227V17.3991H18.563V16.8669Z" fill="#EBEBEB"/>
<path fill-rule="evenodd" clip-rule="evenodd" d="M19.3421 17.2396V17.3993H18.6357V17.2396H19.3421ZM19.3905 16.8284V16.988H18.9405V16.8284H19.3905Z" fill="#EBEBEB"/>
<path fill-rule="evenodd" clip-rule="evenodd" d="M21.6641 16.4509H23.9621V16.6106H21.6641V16.4509ZM22.0027 17.2444H22.1624V17.3992H22.0027V17.2444ZM23.9669 17.2395V17.3992H23.5122V17.2395H23.9669ZM24.2137 16.4509H24.3733V17.3992H24.2137V16.4509Z" fill="#EBEBEB"/>
<path fill-rule="evenodd" clip-rule="evenodd" d="M25.1334 17.2395V17.3992H24.2625V17.2395H25.1334ZM23.5078 16.8718H23.6675V17.3992H23.5078V16.8718Z" fill="#EBEBEB"/>
<path fill-rule="evenodd" clip-rule="evenodd" d="M25.0023 16.4509H25.1619V17.3992H25.0023V16.4509ZM24.6055 16.4509H24.7652V17.3992H24.6055V16.4509ZM22.5059 16.8283V16.9879H21.6641V16.8283H22.5059ZM24.3443 16.8283V16.9879H23.5122V16.8283H24.3443Z" fill="#EBEBEB"/>
<path fill-rule="evenodd" clip-rule="evenodd" d="M23.5126 16.8669H23.6675V17.3991H23.5078L23.5126 16.8669Z" fill="#EBEBEB"/>
<path fill-rule="evenodd" clip-rule="evenodd" d="M23.5126 16.8669H23.6675V17.3991H23.5078L23.5126 16.8669Z" fill="#EBEBEB"/>
<path fill-rule="evenodd" clip-rule="evenodd" d="M23.5122 16.8669H23.667V17.3991H23.5073L23.5122 16.8669ZM21.6641 16.8669H21.8237V17.3991H21.6641V16.8669ZM23.0187 16.8669H23.1735V17.3991H23.0139L23.0187 16.8669ZM22.3462 16.8669H22.5059V17.3991H22.3462V16.8669Z" fill="#EBEBEB"/>
<path fill-rule="evenodd" clip-rule="evenodd" d="M23.1253 17.2396V17.3993H22.4189V17.2396H23.1253ZM23.1737 16.8284V16.988H22.7237V16.8284H23.1737Z" fill="#EBEBEB"/>
<path fill-rule="evenodd" clip-rule="evenodd" d="M-1.0166 6.72681H1.28627V6.88162H-1.0166V6.72681ZM-0.673105 7.5154H-0.513453V7.67021H-0.677944L-0.673105 7.5154ZM1.29111 7.5154V7.67021H0.831502V7.51056L1.29111 7.5154ZM1.53785 6.72681H1.6975V7.67021H1.53785V6.72681Z" fill="#EBEBEB"/>
<path fill-rule="evenodd" clip-rule="evenodd" d="M2.45177 7.51051V7.67016H1.58094V7.51051H2.45177ZM0.831055 7.14282H0.990708V7.675H0.831055V7.14282Z" fill="#EBEBEB"/>
<path fill-rule="evenodd" clip-rule="evenodd" d="M2.3216 6.72681H2.48125V7.67021H2.32644L2.3216 6.72681ZM1.92972 6.72681H2.08454V7.67021H1.93456L1.92972 6.72681ZM-0.169957 7.09933V7.25898H-1.0166V7.10417L-0.169957 7.09933ZM1.66847 7.09933V7.25898H0.831503V7.10417L1.66847 7.09933Z" fill="#EBEBEB"/>
<path fill-rule="evenodd" clip-rule="evenodd" d="M0.831055 7.14282H0.990708V7.675H0.831055V7.14282Z" fill="#EBEBEB"/>
<path fill-rule="evenodd" clip-rule="evenodd" d="M0.831055 7.14282H0.990708V7.675H0.831055V7.14282Z" fill="#EBEBEB"/>
<path fill-rule="evenodd" clip-rule="evenodd" d="M0.831502 7.14282H0.991155V7.675H0.831502V7.14282ZM-1.00693 7.14282H-0.852111V7.675H-1.0166L-1.00693 7.14282ZM0.33803 7.14282H0.497683V7.675H0.33803V7.14282ZM-0.32961 7.14282H-0.169957V7.675H-0.32961V7.14282Z" fill="#EBEBEB"/>
<path fill-rule="evenodd" clip-rule="evenodd" d="M0.449462 7.51064V7.67029H-0.261719V7.51064H0.449462ZM0.497842 7.10425V7.25906H0.0479109V7.10425H0.497842Z" fill="#EBEBEB"/>
<path fill-rule="evenodd" clip-rule="evenodd" d="M2.7334 6.72681H5.03143V6.88162H2.7334V6.72681ZM3.07206 7.5154H3.23171V7.67021H3.07689L3.07206 7.5154ZM5.03627 7.5154V7.67021H4.57666V7.51056L5.03627 7.5154ZM5.28301 6.72681H5.44266V7.67021H5.28301V6.72681Z" fill="#EBEBEB"/>
<path fill-rule="evenodd" clip-rule="evenodd" d="M6.20271 7.51051V7.67016H5.33187V7.51051H6.20271ZM4.57715 7.14282H4.7368V7.675H4.57715V7.14282Z" fill="#EBEBEB"/>
<path fill-rule="evenodd" clip-rule="evenodd" d="M6.07164 6.72681H6.23129V7.67021H6.07164V6.72681ZM5.67493 6.72681H5.83458V7.67021H5.67493V6.72681ZM3.57525 7.09933V7.25898H2.73828V7.10417L3.57525 7.09933ZM5.41368 7.09933V7.25898H4.57671V7.10417L5.41368 7.09933Z" fill="#EBEBEB"/>
<path fill-rule="evenodd" clip-rule="evenodd" d="M4.57715 7.14282H4.7368V7.675H4.57715V7.14282Z" fill="#EBEBEB"/>
<path fill-rule="evenodd" clip-rule="evenodd" d="M4.57715 7.14282H4.7368V7.675H4.57715V7.14282Z" fill="#EBEBEB"/>
<path fill-rule="evenodd" clip-rule="evenodd" d="M4.57671 7.14282H4.73636V7.675H4.57671V7.14282ZM2.73828 7.14282H2.8931V7.675H2.73828V7.14282ZM4.08807 7.14282H4.24289V7.675H4.08807V7.14282ZM3.4156 7.14282H3.57525V7.675H3.4156V7.14282Z" fill="#EBEBEB"/>
<path fill-rule="evenodd" clip-rule="evenodd" d="M4.19942 7.51064V7.67029H3.4834V7.51064H4.19942ZM4.2478 7.10425V7.25906H3.79303V7.10425H4.2478Z" fill="#EBEBEB"/>
<path fill-rule="evenodd" clip-rule="evenodd" d="M6.50195 6.72681H8.79999V6.88162H6.50195V6.72681ZM6.84545 7.5154H7.0051V7.67021H6.84545V7.5154ZM8.80966 7.5154V7.67021H8.35006V7.51056L8.80966 7.5154ZM9.05156 6.72681H9.21122V7.67021H9.0564L9.05156 6.72681Z" fill="#EBEBEB"/>
<path fill-rule="evenodd" clip-rule="evenodd" d="M9.97033 7.51051V7.67016H9.09949V7.51051H9.97033ZM8.34961 7.14282H8.50442V7.675H8.34961V7.14282Z" fill="#EBEBEB"/>
<path fill-rule="evenodd" clip-rule="evenodd" d="M9.8402 6.72681H9.99985V7.67021H9.8402V6.72681ZM9.44832 6.72681H9.60314V7.67021H9.44348L9.44832 6.72681ZM7.3438 7.09933V7.25898H6.50684V7.10417L7.3438 7.09933ZM9.18707 7.09933V7.25898H8.3501V7.10417L9.18707 7.09933Z" fill="#EBEBEB"/>
<path fill-rule="evenodd" clip-rule="evenodd" d="M8.34961 7.14282H8.50442V7.675H8.34961V7.14282Z" fill="#EBEBEB"/>
<path fill-rule="evenodd" clip-rule="evenodd" d="M8.34961 7.14282H8.50442V7.675H8.34961V7.14282Z" fill="#EBEBEB"/>
<path fill-rule="evenodd" clip-rule="evenodd" d="M8.3501 7.14282H8.50492V7.675H8.3501V7.14282ZM6.50684 7.14282H6.66649V7.675H6.50684V7.14282ZM7.85663 7.14282H8.01628V7.675H7.85663V7.14282ZM7.18899 7.14282H7.34864V7.675H7.18899V7.14282Z" fill="#EBEBEB"/>
<path fill-rule="evenodd" clip-rule="evenodd" d="M7.96802 7.51064V7.67029H7.25684V7.51064H7.96802ZM8.0164 7.10425V7.25906H7.56647V7.10425H8.0164Z" fill="#EBEBEB"/>
<path fill-rule="evenodd" clip-rule="evenodd" d="M10.2852 6.72681H12.588V6.88162H10.2852V6.72681ZM10.6287 7.5154H10.7883V7.67021H10.6287V7.5154ZM12.5929 7.5154V7.67021H12.1333V7.51056L12.5929 7.5154ZM12.8396 6.72681H12.9993V7.67021H12.8396V6.72681Z" fill="#EBEBEB"/>
<path fill-rule="evenodd" clip-rule="evenodd" d="M13.7535 7.51051V7.67016H12.8827V7.51051H13.7535ZM12.1328 7.14282H12.2925V7.675H12.1328V7.14282Z" fill="#EBEBEB"/>
<path fill-rule="evenodd" clip-rule="evenodd" d="M13.6234 6.72681H13.7831V7.67021H13.6234V6.72681ZM13.2315 6.72681H13.3863V7.67021H13.2315V6.72681ZM11.1318 7.09933V7.25898H10.29V7.10417L11.1318 7.09933ZM12.9703 7.09933V7.25898H12.1333V7.10417L12.9703 7.09933Z" fill="#EBEBEB"/>
<path fill-rule="evenodd" clip-rule="evenodd" d="M12.1328 7.14282H12.2925V7.675H12.1328V7.14282Z" fill="#EBEBEB"/>
<path fill-rule="evenodd" clip-rule="evenodd" d="M12.1328 7.14282H12.2925V7.675H12.1328V7.14282Z" fill="#EBEBEB"/>
<path fill-rule="evenodd" clip-rule="evenodd" d="M12.1333 7.14282H12.293V7.675H12.1333V7.14282ZM10.2949 7.14282H10.4497V7.675H10.29L10.2949 7.14282ZM11.6398 7.14282H11.7995V7.675H11.6398V7.14282ZM10.9722 7.14282H11.1318V7.675H10.9722V7.14282Z" fill="#EBEBEB"/>
<path fill-rule="evenodd" clip-rule="evenodd" d="M11.7561 7.51064V7.67029H11.0449V7.51064H11.7561ZM11.7996 7.10425V7.25906H11.3497V7.10425H11.7996Z" fill="#EBEBEB"/>
<path fill-rule="evenodd" clip-rule="evenodd" d="M14.0928 6.72681H16.3908V6.88162H14.0928V6.72681ZM14.4363 7.5154H14.5959V7.67021H14.4363V7.5154ZM16.4005 7.5154V7.67021H15.9409V7.51056L16.4005 7.5154ZM16.6424 6.72681H16.8069V7.67021H16.6424V6.72681Z" fill="#EBEBEB"/>
<path fill-rule="evenodd" clip-rule="evenodd" d="M17.5611 7.51051V7.67016H16.6903V7.51051H17.5611ZM15.9404 7.14282H16.0952V7.675H15.9404V7.14282Z" fill="#EBEBEB"/>
<path fill-rule="evenodd" clip-rule="evenodd" d="M17.431 6.72681H17.5907V7.67021H17.431V6.72681ZM17.0391 6.72681H17.194V7.67021H17.0391V6.72681ZM14.9395 7.09933V7.25898H14.0977V7.10417L14.9395 7.09933ZM16.7779 7.09933V7.25898H15.9409V7.10417L16.7779 7.09933Z" fill="#EBEBEB"/>
<path fill-rule="evenodd" clip-rule="evenodd" d="M15.9404 7.14282H16.0952V7.675H15.9404V7.14282Z" fill="#EBEBEB"/>
<path fill-rule="evenodd" clip-rule="evenodd" d="M15.9404 7.14282H16.0952V7.675H15.9404V7.14282Z" fill="#EBEBEB"/>
<path fill-rule="evenodd" clip-rule="evenodd" d="M15.9409 7.14282H16.0957V7.675H15.9409V7.14282ZM14.0977 7.14282H14.2573V7.675H14.0977V7.14282ZM15.4474 7.14282H15.6071V7.675H15.4474V7.14282ZM14.7798 7.14282H14.9395V7.675H14.7798V7.14282Z" fill="#EBEBEB"/>
<path fill-rule="evenodd" clip-rule="evenodd" d="M15.5588 7.51064V7.67029H14.8477V7.51064H15.5588ZM15.6072 7.10425V7.25906H15.1573V7.10425H15.6072Z" fill="#EBEBEB"/>
<path fill-rule="evenodd" clip-rule="evenodd" d="M17.876 6.72681H20.1788V6.88162H17.876V6.72681ZM18.2195 7.5154H18.3791V7.67021H18.2195V7.5154ZM20.1837 7.5154V7.67021H19.7241V7.51056L20.1837 7.5154ZM20.4304 6.72681H20.5901V7.67021H20.4304V6.72681Z" fill="#EBEBEB"/>
<path fill-rule="evenodd" clip-rule="evenodd" d="M21.3444 7.51051V7.67016H20.4735V7.51051H21.3444ZM19.7236 7.14282H19.8833V7.675H19.7236V7.14282Z" fill="#EBEBEB"/>
<path fill-rule="evenodd" clip-rule="evenodd" d="M21.2191 6.72681H21.3739V7.67021H21.2191V6.72681ZM20.8223 6.72681H20.982V7.67021H20.8223V6.72681ZM18.7227 7.09933V7.25898H17.8809V7.10417L18.7227 7.09933ZM20.5611 7.09933V7.25898H19.7241V7.10417L20.5611 7.09933Z" fill="#EBEBEB"/>
<path fill-rule="evenodd" clip-rule="evenodd" d="M19.7236 7.14282H19.8833V7.675H19.7236V7.14282Z" fill="#EBEBEB"/>
<path fill-rule="evenodd" clip-rule="evenodd" d="M19.7236 7.14282H19.8833V7.675H19.7236V7.14282Z" fill="#EBEBEB"/>
<path fill-rule="evenodd" clip-rule="evenodd" d="M19.7241 7.14282H19.8838V7.675H19.7241V7.14282ZM17.8857 7.14282H18.0405V7.675H17.8809L17.8857 7.14282ZM19.2307 7.14282H19.3903V7.675H19.2307V7.14282ZM18.563 7.14282H18.7227V7.675H18.563V7.14282Z" fill="#EBEBEB"/>
<path fill-rule="evenodd" clip-rule="evenodd" d="M19.3421 7.51064V7.67029H18.6357V7.51064H19.3421ZM19.3905 7.10425V7.25906H18.9405V7.10425H19.3905Z" fill="#EBEBEB"/>
<path fill-rule="evenodd" clip-rule="evenodd" d="M21.6641 6.72681H23.9621V6.88162H21.6641V6.72681ZM22.0027 7.5154H22.1624V7.67021H22.0027V7.5154ZM23.9669 7.5154V7.67021H23.5122V7.51056L23.9669 7.5154ZM24.2137 6.72681H24.3733V7.67021H24.2137V6.72681Z" fill="#EBEBEB"/>
<path fill-rule="evenodd" clip-rule="evenodd" d="M25.1334 7.51051V7.67016H24.2625V7.51051H25.1334ZM23.5078 7.14282H23.6675V7.675H23.5078V7.14282Z" fill="#EBEBEB"/>
<path fill-rule="evenodd" clip-rule="evenodd" d="M25.0023 6.72681H25.1619V7.67021H25.0023V6.72681ZM24.6055 6.72681H24.7652V7.67021H24.6055V6.72681ZM22.5059 7.09933V7.25898H21.6641V7.10417L22.5059 7.09933ZM24.3443 7.09933V7.25898H23.5122V7.10417L24.3443 7.09933Z" fill="#EBEBEB"/>
<path fill-rule="evenodd" clip-rule="evenodd" d="M23.5126 7.14282H23.6675V7.675H23.5078L23.5126 7.14282Z" fill="#EBEBEB"/>
<path fill-rule="evenodd" clip-rule="evenodd" d="M23.5126 7.14282H23.6675V7.675H23.5078L23.5126 7.14282Z" fill="#EBEBEB"/>
<path fill-rule="evenodd" clip-rule="evenodd" d="M23.5122 7.14282H23.667V7.675H23.5073L23.5122 7.14282ZM21.6641 7.14282H21.8237V7.675H21.6641V7.14282ZM23.0187 7.14282H23.1735V7.675H23.0139L23.0187 7.14282ZM22.3462 7.14282H22.5059V7.675H22.3462V7.14282Z" fill="#EBEBEB"/>
<path fill-rule="evenodd" clip-rule="evenodd" d="M23.1253 7.51064V7.67029H22.4189V7.51064H23.1253ZM23.1737 7.10425V7.25906H22.7237V7.10425H23.1737Z" fill="#EBEBEB"/>
<path fill-rule="evenodd" clip-rule="evenodd" d="M-3.22733 15.9189H-2.94189V16.4027H-3.22733V15.9189ZM4.29571 15.9189H4.58116V16.4027H4.29571V15.9189ZM-8.99902 15.9189H-8.71842V16.4027H-8.99902V15.9189ZM-5.18187 15.9189H-4.89643V16.4027H-5.18187V15.9189ZM-1.3889 15.9189H-1.1083V16.4027H-1.3889V15.9189ZM0.488234 15.9189H0.768835V16.4027H0.488234V15.9189ZM2.39923 15.9189H2.68951V16.4027H2.39923V15.9189ZM6.17285 15.9189H6.45829V16.4027H6.17285V15.9189ZM15.694 15.9189H15.9746V16.4027H15.694V15.9189ZM8.08868 15.9189H8.37412V16.4027H8.08868V15.9189ZM9.96581 15.9189H10.2513V16.4027H9.96581V15.9189ZM11.8623 15.9189H12.1429V16.4027H11.8623V15.9189ZM13.7588 15.9189H14.0394V16.4027H13.7588V15.9189ZM28.9016 15.9189H29.1919V16.4027H28.9016V15.9189ZM17.5324 15.9189H17.813V16.4027H17.5276L17.5324 15.9189ZM19.4434 15.9189H19.7288V16.4027H19.4434V15.9189ZM21.3786 15.9189H21.664V16.4027H21.3786V15.9189ZM23.1977 15.9189H23.4831V16.4027H23.1977V15.9189ZM25.1328 15.9189H25.4183V16.4027H25.128L25.1328 15.9189ZM27.0293 15.9189H27.3099V16.4027H27.0293V15.9189ZM32.6414 15.9189H32.922V16.4027H32.6365L32.6414 15.9189ZM30.8223 15.9189H31.1029V16.4027H30.8223V15.9189ZM-7.0977 15.9189H-6.81226V16.4027H-7.0977V15.9189Z" fill="#D90000"/>
<path fill-rule="evenodd" clip-rule="evenodd" d="M-3.22733 7.62671H-2.94189V8.11534H-3.22733V7.62671ZM4.29571 7.62671H4.58116V8.11534H4.29571V7.62671ZM-8.99902 7.62671H-8.71842V8.11534H-8.99902V7.62671ZM-5.18187 7.62671H-4.89643V8.11534H-5.18187V7.62671ZM-1.3889 7.62671H-1.1083V8.11534H-1.3889V7.62671ZM0.488234 7.62671H0.768835V8.11534H0.488234V7.62671ZM2.39923 7.62671H2.68951V8.11534H2.39923V7.62671ZM6.17285 7.62671H6.45829V8.11534H6.17285V7.62671ZM15.694 7.62671H15.9746V8.11534H15.694V7.62671ZM8.08868 7.62671H8.37412V8.11534H8.08868V7.62671ZM9.96581 7.62671H10.2513V8.11534H9.96581V7.62671ZM11.8623 7.62671H12.1429V8.11534H11.8623V7.62671ZM13.7588 7.62671H14.0394V8.11534H13.7588V7.62671ZM28.9016 7.62671H29.1919V8.11534H28.9016V7.62671ZM17.5324 7.62671H17.813V8.11534H17.5276L17.5324 7.62671ZM19.4434 7.62671H19.7288V8.11534H19.4434V7.62671ZM21.3786 7.62671H21.664V8.11534H21.3786V7.62671ZM23.1977 7.62671H23.4831V8.11534H23.1977V7.62671ZM25.1328 7.62671H25.4183V8.11534H25.128L25.1328 7.62671ZM27.0293 7.62671H27.3099V8.11534H27.0293V7.62671ZM32.6414 7.62671H32.922V8.11534H32.6365L32.6414 7.62671ZM30.8223 7.62671H31.1029V8.11534H30.8223V7.62671ZM-7.0977 7.62671H-6.81226V8.11534H-7.0977V7.62671Z" fill="#239E3F"/>
<path fill-rule="evenodd" clip-rule="evenodd" d="M13.11 9.26196C13.5115 9.74576 14.7307 12.4308 12.3746 14.1919C11.2667 15.024 11.9537 15.0627 11.9875 15.2078C13.7679 14.2596 14.3485 12.9824 14.334 11.8309C14.3194 10.6843 13.7147 9.67319 13.1148 9.26196H13.11Z" fill="#DA0000"/>
<path fill-rule="evenodd" clip-rule="evenodd" d="M13.3522 9.13599C13.7857 9.40147 14.1548 9.75984 14.433 10.1853C14.7112 10.6107 14.8915 11.0925 14.961 11.5961C15.0304 12.0996 14.9872 12.6123 14.8345 13.0971C14.6818 13.5819 14.4234 14.0268 14.0779 14.3997C15.3552 14.1191 16.9807 10.3503 13.3426 9.13599H13.3522ZM10.6478 9.13599C10.2144 9.40147 9.84521 9.75984 9.56702 10.1853C9.28882 10.6107 9.10851 11.0925 9.03909 11.5961C8.96967 12.0996 9.01287 12.6123 9.16557 13.0971C9.31827 13.5819 9.57667 14.0268 9.92212 14.3997C8.64006 14.1191 7.0145 10.3503 10.6478 9.13599Z" fill="#DA0000"/>
<path fill-rule="evenodd" clip-rule="evenodd" d="M10.8844 9.26196C10.4877 9.74576 9.26371 12.4308 11.6198 14.1919C12.7277 15.024 12.0407 15.0627 12.0068 15.2078C10.2313 14.2596 9.6459 12.9824 9.66042 11.8309C9.67493 10.6843 10.2845 9.67319 10.8844 9.26196Z" fill="#DA0000"/>
<path fill-rule="evenodd" clip-rule="evenodd" d="M14.2566 14.961C13.491 14.9906 12.7291 14.8415 12.0311 14.5256C12.1376 14.7336 12.2246 14.8642 12.3359 15.0771C12.9552 15.1303 13.8115 15.2029 14.2566 14.961ZM9.80566 14.961C10.5023 14.9706 11.3828 14.8642 12.0311 14.5256C11.9247 14.7336 11.8376 14.8642 11.7263 15.0771C11.1071 15.1303 10.2508 15.2029 9.80566 14.961ZM11.0829 8.45874C11.228 8.83126 11.5957 8.88932 11.9924 8.66677C12.2827 8.84094 12.7278 8.85062 12.8826 8.47325C12.9987 9.40214 12.0215 9.18444 11.9876 9.00543C11.6247 9.35376 10.9474 9.15057 11.0829 8.45874Z" fill="#DA0000"/>
<path fill-rule="evenodd" clip-rule="evenodd" d="M12.0173 15.5463L12.385 15.1254L12.4333 9.49397L11.9979 9.10693L11.5625 9.47462L11.6496 15.1447L12.0173 15.5463Z" fill="#DA0000"/>
</svg>
