<svg width="24" height="24" viewBox="0 0 24 24" fill="none" xmlns="http://www.w3.org/2000/svg">
<path d="M9.8965 7.51968C9.92964 7.5051 9.96591 7.49907 10.002 7.50217C10.038 7.50526 10.0728 7.51737 10.1029 7.53738C10.1331 7.55739 10.1578 7.58467 10.1746 7.6167C10.1915 7.64873 10.2001 7.68448 10.1995 7.72068V9.45018C10.1995 9.6491 10.2785 9.83986 10.4192 9.98051C10.5598 10.1212 10.7506 10.2002 10.9495 10.2002C11.95 10.2002 13.969 10.2077 15.8995 11.4332C17.3755 12.3692 18.8845 14.0732 19.792 17.2472C18.262 15.7727 16.5145 14.9732 14.9845 14.5487C14.0442 14.2884 13.0776 14.1345 12.103 14.0897C11.7041 14.0709 11.3044 14.0749 10.906 14.1017H10.8865L10.879 14.1032L10.9495 14.8502L10.8745 14.1032C10.6894 14.1218 10.5178 14.2085 10.393 14.3466C10.2683 14.4846 10.1993 14.6641 10.1995 14.8502V16.5797C10.1995 16.7417 10.0345 16.8437 9.8965 16.7807L3.9205 12.3812L3.8575 12.3392C3.82489 12.3196 3.7979 12.2919 3.77916 12.2588C3.76042 12.2256 3.75058 12.1882 3.75058 12.1502C3.75058 12.1121 3.76042 12.0747 3.77916 12.0416C3.7979 12.0085 3.82489 11.9808 3.8575 11.9612L3.9205 11.9192L9.8965 7.51968ZM11.6995 15.5792C11.8025 15.5792 11.914 15.5822 12.034 15.5882C12.685 15.6182 13.585 15.7172 14.584 15.9947C16.573 16.5467 18.928 17.7977 20.494 20.6147C20.5787 20.7667 20.7136 20.8846 20.8757 20.9481C21.0377 21.0116 21.2168 21.0167 21.3823 20.9626C21.5477 20.9086 21.6892 20.7986 21.7825 20.6517C21.8757 20.5047 21.915 20.3299 21.8935 20.1572C21.1975 14.5922 19.0645 11.6642 16.7035 10.1672C14.836 8.98218 12.913 8.75418 11.6995 8.71068V7.72068C11.6996 7.41179 11.6164 7.10858 11.4586 6.84305C11.3007 6.57753 11.0741 6.35953 10.8027 6.21207C10.5313 6.06461 10.2251 5.99314 9.91642 6.00522C9.60776 6.01729 9.30808 6.11246 9.049 6.28068L3.058 10.6907C2.81032 10.8453 2.60606 11.0604 2.46445 11.3157C2.32284 11.571 2.24854 11.8582 2.24854 12.1502C2.24854 12.4422 2.32284 12.7293 2.46445 12.9847C2.60606 13.24 2.81032 13.4551 3.058 13.6097L9.049 18.0197C9.30808 18.1879 9.60776 18.2831 9.91642 18.2951C10.2251 18.3072 10.5313 18.2358 10.8027 18.0883C11.0741 17.9408 11.3007 17.7228 11.4586 17.4573C11.6164 17.1918 11.6996 16.8886 11.6995 16.5797V15.5792Z" fill="#4FC3F7"/>
</svg>
